ISO-10303-21;
HEADER;
/* Generated by software containing ST-Developer
 * from STEP Tools, Inc. (www.steptools.com) 
 */

FILE_DESCRIPTION(
/* description */ (''),
/* implementation_level */ '2;1');

FILE_NAME(
/* name */ 'Leg_t5_CAM.stp',
/* time_stamp */ '2025-10-30T22:45:17+09:00',
/* author */ ('rei_r'),
/* organization */ (''),
/* preprocessor_version */ 'ST-DEVELOPER v20.1',
/* originating_system */ 'Autodesk Inventor 2026',
/* authorisation */ '');

FILE_SCHEMA (('AUTOMOTIVE_DESIGN { 1 0 10303 214 3 1 1 }'));
ENDSEC;

DATA;
#10=MECHANICAL_DESIGN_GEOMETRIC_PRESENTATION_REPRESENTATION('',(#39,#40),
#945);
#11=ITEM_DEFINED_TRANSFORMATION($,$,#618,#631);
#12=ITEM_DEFINED_TRANSFORMATION($,$,#563,#632);
#13=ITEM_DEFINED_TRANSFORMATION($,$,#618,#633);
#14=ITEM_DEFINED_TRANSFORMATION($,$,#618,#634);
#15=ITEM_DEFINED_TRANSFORMATION($,$,#563,#635);
#16=ITEM_DEFINED_TRANSFORMATION($,$,#618,#636);
#17=(
REPRESENTATION_RELATIONSHIP($,$,#964,#962)
REPRESENTATION_RELATIONSHIP_WITH_TRANSFORMATION(#11)
SHAPE_REPRESENTATION_RELATIONSHIP()
);
#18=(
REPRESENTATION_RELATIONSHIP($,$,#963,#962)
REPRESENTATION_RELATIONSHIP_WITH_TRANSFORMATION(#12)
SHAPE_REPRESENTATION_RELATIONSHIP()
);
#19=(
REPRESENTATION_RELATIONSHIP($,$,#964,#962)
REPRESENTATION_RELATIONSHIP_WITH_TRANSFORMATION(#13)
SHAPE_REPRESENTATION_RELATIONSHIP()
);
#20=(
REPRESENTATION_RELATIONSHIP($,$,#964,#962)
REPRESENTATION_RELATIONSHIP_WITH_TRANSFORMATION(#14)
SHAPE_REPRESENTATION_RELATIONSHIP()
);
#21=(
REPRESENTATION_RELATIONSHIP($,$,#963,#962)
REPRESENTATION_RELATIONSHIP_WITH_TRANSFORMATION(#15)
SHAPE_REPRESENTATION_RELATIONSHIP()
);
#22=(
REPRESENTATION_RELATIONSHIP($,$,#964,#962)
REPRESENTATION_RELATIONSHIP_WITH_TRANSFORMATION(#16)
SHAPE_REPRESENTATION_RELATIONSHIP()
);
#23=CONTEXT_DEPENDENT_SHAPE_REPRESENTATION(#17,#956);
#24=CONTEXT_DEPENDENT_SHAPE_REPRESENTATION(#18,#957);
#25=CONTEXT_DEPENDENT_SHAPE_REPRESENTATION(#19,#958);
#26=CONTEXT_DEPENDENT_SHAPE_REPRESENTATION(#20,#959);
#27=CONTEXT_DEPENDENT_SHAPE_REPRESENTATION(#21,#960);
#28=CONTEXT_DEPENDENT_SHAPE_REPRESENTATION(#22,#961);
#29=NEXT_ASSEMBLY_USAGE_OCCURRENCE('roll_free_horn_axis_2:1',
'roll_free_horn_axis_2:1','roll_free_horn_axis_2:1',#966,#968,
'roll_free_horn_axis_2:1');
#30=NEXT_ASSEMBLY_USAGE_OCCURRENCE('hip_joint_yaw_spacer_3:1',
'hip_joint_yaw_spacer_3:1','hip_joint_yaw_spacer_3:1',#966,#967,
'hip_joint_yaw_spacer_3:1');
#31=NEXT_ASSEMBLY_USAGE_OCCURRENCE('roll_free_horn_axis_2:2',
'roll_free_horn_axis_2:2','roll_free_horn_axis_2:2',#966,#968,
'roll_free_horn_axis_2:2');
#32=NEXT_ASSEMBLY_USAGE_OCCURRENCE('roll_free_horn_axis_2:3',
'roll_free_horn_axis_2:3','roll_free_horn_axis_2:3',#966,#968,
'roll_free_horn_axis_2:3');
#33=NEXT_ASSEMBLY_USAGE_OCCURRENCE('hip_joint_yaw_spacer_3:2',
'hip_joint_yaw_spacer_3:2','hip_joint_yaw_spacer_3:2',#966,#967,
'hip_joint_yaw_spacer_3:2');
#34=NEXT_ASSEMBLY_USAGE_OCCURRENCE('roll_free_horn_axis_2:4',
'roll_free_horn_axis_2:4','roll_free_horn_axis_2:4',#966,#968,
'roll_free_horn_axis_2:4');
#35=SHAPE_REPRESENTATION_RELATIONSHIP('SRR','None',#963,#37);
#36=SHAPE_REPRESENTATION_RELATIONSHIP('SRR','None',#964,#38);
#37=ADVANCED_BREP_SHAPE_REPRESENTATION('',(#41),#943);
#38=ADVANCED_BREP_SHAPE_REPRESENTATION('',(#42),#944);
#39=STYLED_ITEM('',(#526),#41);
#40=STYLED_ITEM('',(#527),#42);
#41=MANIFOLD_SOLID_BREP('\X2\30BD30EA30C330C9\X0\1',#498);
#42=MANIFOLD_SOLID_BREP('\X2\30BD30EA30C330C9\X0\1',#499);
#43=FACE_BOUND('',#117,.T.);
#44=FACE_BOUND('',#121,.T.);
#45=FACE_BOUND('',#125,.T.);
#46=FACE_BOUND('',#129,.T.);
#47=FACE_BOUND('',#134,.T.);
#48=FACE_BOUND('',#135,.T.);
#49=FACE_BOUND('',#136,.T.);
#50=FACE_BOUND('',#137,.T.);
#51=FACE_BOUND('',#138,.T.);
#52=FACE_BOUND('',#139,.T.);
#53=FACE_BOUND('',#140,.T.);
#54=FACE_BOUND('',#141,.T.);
#55=FACE_BOUND('',#142,.T.);
#56=FACE_BOUND('',#143,.T.);
#57=FACE_BOUND('',#144,.T.);
#58=FACE_BOUND('',#146,.T.);
#59=FACE_BOUND('',#147,.T.);
#60=FACE_BOUND('',#148,.T.);
#61=FACE_BOUND('',#149,.T.);
#62=FACE_BOUND('',#150,.T.);
#63=FACE_BOUND('',#151,.T.);
#64=FACE_BOUND('',#152,.T.);
#65=FACE_BOUND('',#153,.T.);
#66=FACE_BOUND('',#154,.T.);
#67=FACE_BOUND('',#155,.T.);
#68=FACE_BOUND('',#156,.T.);
#69=FACE_BOUND('',#160,.T.);
#70=FACE_BOUND('',#163,.T.);
#71=FACE_BOUND('',#165,.T.);
#72=PLANE('',#585);
#73=PLANE('',#592);
#74=PLANE('',#599);
#75=PLANE('',#606);
#76=PLANE('',#616);
#77=PLANE('',#617);
#78=PLANE('',#625);
#79=PLANE('',#629);
#80=PLANE('',#630);
#81=FACE_OUTER_BOUND('',#109,.T.);
#82=FACE_OUTER_BOUND('',#110,.T.);
#83=FACE_OUTER_BOUND('',#111,.T.);
#84=FACE_OUTER_BOUND('',#112,.T.);
#85=FACE_OUTER_BOUND('',#113,.T.);
#86=FACE_OUTER_BOUND('',#114,.T.);
#87=FACE_OUTER_BOUND('',#115,.T.);
#88=FACE_OUTER_BOUND('',#116,.T.);
#89=FACE_OUTER_BOUND('',#118,.T.);
#90=FACE_OUTER_BOUND('',#119,.T.);
#91=FACE_OUTER_BOUND('',#120,.T.);
#92=FACE_OUTER_BOUND('',#122,.T.);
#93=FACE_OUTER_BOUND('',#123,.T.);
#94=FACE_OUTER_BOUND('',#124,.T.);
#95=FACE_OUTER_BOUND('',#126,.T.);
#96=FACE_OUTER_BOUND('',#127,.T.);
#97=FACE_OUTER_BOUND('',#128,.T.);
#98=FACE_OUTER_BOUND('',#130,.T.);
#99=FACE_OUTER_BOUND('',#131,.T.);
#100=FACE_OUTER_BOUND('',#132,.T.);
#101=FACE_OUTER_BOUND('',#133,.T.);
#102=FACE_OUTER_BOUND('',#145,.T.);
#103=FACE_OUTER_BOUND('',#157,.T.);
#104=FACE_OUTER_BOUND('',#158,.T.);
#105=FACE_OUTER_BOUND('',#159,.T.);
#106=FACE_OUTER_BOUND('',#161,.T.);
#107=FACE_OUTER_BOUND('',#162,.T.);
#108=FACE_OUTER_BOUND('',#164,.T.);
#109=EDGE_LOOP('',(#337,#338,#339,#340));
#110=EDGE_LOOP('',(#341,#342,#343,#344));
#111=EDGE_LOOP('',(#345,#346,#347,#348));
#112=EDGE_LOOP('',(#349,#350,#351,#352));
#113=EDGE_LOOP('',(#353,#354,#355,#356));
#114=EDGE_LOOP('',(#357,#358,#359,#360));
#115=EDGE_LOOP('',(#361,#362,#363,#364));
#116=EDGE_LOOP('',(#365));
#117=EDGE_LOOP('',(#366));
#118=EDGE_LOOP('',(#367,#368,#369,#370));
#119=EDGE_LOOP('',(#371,#372,#373,#374));
#120=EDGE_LOOP('',(#375));
#121=EDGE_LOOP('',(#376));
#122=EDGE_LOOP('',(#377,#378,#379,#380));
#123=EDGE_LOOP('',(#381,#382,#383,#384));
#124=EDGE_LOOP('',(#385));
#125=EDGE_LOOP('',(#386));
#126=EDGE_LOOP('',(#387,#388,#389,#390));
#127=EDGE_LOOP('',(#391,#392,#393,#394));
#128=EDGE_LOOP('',(#395));
#129=EDGE_LOOP('',(#396));
#130=EDGE_LOOP('',(#397,#398,#399,#400));
#131=EDGE_LOOP('',(#401,#402,#403,#404));
#132=EDGE_LOOP('',(#405,#406,#407,#408));
#133=EDGE_LOOP('',(#409));
#134=EDGE_LOOP('',(#410));
#135=EDGE_LOOP('',(#411));
#136=EDGE_LOOP('',(#412));
#137=EDGE_LOOP('',(#413));
#138=EDGE_LOOP('',(#414));
#139=EDGE_LOOP('',(#415));
#140=EDGE_LOOP('',(#416));
#141=EDGE_LOOP('',(#417));
#142=EDGE_LOOP('',(#418));
#143=EDGE_LOOP('',(#419));
#144=EDGE_LOOP('',(#420));
#145=EDGE_LOOP('',(#421));
#146=EDGE_LOOP('',(#422));
#147=EDGE_LOOP('',(#423));
#148=EDGE_LOOP('',(#424));
#149=EDGE_LOOP('',(#425));
#150=EDGE_LOOP('',(#426));
#151=EDGE_LOOP('',(#427));
#152=EDGE_LOOP('',(#428));
#153=EDGE_LOOP('',(#429));
#154=EDGE_LOOP('',(#430));
#155=EDGE_LOOP('',(#431));
#156=EDGE_LOOP('',(#432));
#157=EDGE_LOOP('',(#433,#434,#435,#436));
#158=EDGE_LOOP('',(#437,#438,#439,#440));
#159=EDGE_LOOP('',(#441));
#160=EDGE_LOOP('',(#442));
#161=EDGE_LOOP('',(#443,#444,#445,#446));
#162=EDGE_LOOP('',(#447));
#163=EDGE_LOOP('',(#448));
#164=EDGE_LOOP('',(#449));
#165=EDGE_LOOP('',(#450));
#166=LINE('',#812,#185);
#167=LINE('',#818,#186);
#168=LINE('',#824,#187);
#169=LINE('',#830,#188);
#170=LINE('',#836,#189);
#171=LINE('',#842,#190);
#172=LINE('',#848,#191);
#173=LINE('',#858,#192);
#174=LINE('',#861,#193);
#175=LINE('',#871,#194);
#176=LINE('',#874,#195);
#177=LINE('',#884,#196);
#178=LINE('',#887,#197);
#179=LINE('',#897,#198);
#180=LINE('',#900,#199);
#181=LINE('',#906,#200);
#182=LINE('',#915,#201);
#183=LINE('',#921,#202);
#184=LINE('',#928,#203);
#185=VECTOR('',#645,1.2295);
#186=VECTOR('',#652,1.2295);
#187=VECTOR('',#659,1.2295);
#188=VECTOR('',#666,1.2295);
#189=VECTOR('',#673,1.2295);
#190=VECTOR('',#680,1.2295);
#191=VECTOR('',#687,3.);
#192=VECTOR('',#700,3.);
#193=VECTOR('',#703,1.55);
#194=VECTOR('',#716,3.);
#195=VECTOR('',#719,1.55);
#196=VECTOR('',#732,3.);
#197=VECTOR('',#735,1.55);
#198=VECTOR('',#748,3.);
#199=VECTOR('',#751,1.55);
#200=VECTOR('',#758,19.);
#201=VECTOR('',#771,1.2295);
#202=VECTOR('',#778,2.);
#203=VECTOR('',#787,4.);
#204=CIRCLE('',#565,1.2295);
#205=CIRCLE('',#566,1.2295);
#206=CIRCLE('',#568,1.2295);
#207=CIRCLE('',#569,1.2295);
#208=CIRCLE('',#571,1.2295);
#209=CIRCLE('',#572,1.2295);
#210=CIRCLE('',#574,1.2295);
#211=CIRCLE('',#575,1.2295);
#212=CIRCLE('',#577,1.2295);
#213=CIRCLE('',#578,1.2295);
#214=CIRCLE('',#580,1.2295);
#215=CIRCLE('',#581,1.2295);
#216=CIRCLE('',#583,3.);
#217=CIRCLE('',#584,3.);
#218=CIRCLE('',#586,3.);
#219=CIRCLE('',#587,1.55);
#220=CIRCLE('',#589,3.);
#221=CIRCLE('',#591,1.55);
#222=CIRCLE('',#593,3.);
#223=CIRCLE('',#594,1.55);
#224=CIRCLE('',#596,3.);
#225=CIRCLE('',#598,1.55);
#226=CIRCLE('',#600,3.);
#227=CIRCLE('',#601,1.55);
#228=CIRCLE('',#603,3.);
#229=CIRCLE('',#605,1.55);
#230=CIRCLE('',#607,3.);
#231=CIRCLE('',#608,1.55);
#232=CIRCLE('',#610,3.);
#233=CIRCLE('',#612,1.55);
#234=CIRCLE('',#614,19.);
#235=CIRCLE('',#615,19.);
#236=CIRCLE('',#620,1.2295);
#237=CIRCLE('',#621,1.2295);
#238=CIRCLE('',#623,2.);
#239=CIRCLE('',#624,2.);
#240=CIRCLE('',#627,4.);
#241=CIRCLE('',#628,4.);
#242=VERTEX_POINT('',#809);
#243=VERTEX_POINT('',#811);
#244=VERTEX_POINT('',#815);
#245=VERTEX_POINT('',#817);
#246=VERTEX_POINT('',#821);
#247=VERTEX_POINT('',#823);
#248=VERTEX_POINT('',#827);
#249=VERTEX_POINT('',#829);
#250=VERTEX_POINT('',#833);
#251=VERTEX_POINT('',#835);
#252=VERTEX_POINT('',#839);
#253=VERTEX_POINT('',#841);
#254=VERTEX_POINT('',#845);
#255=VERTEX_POINT('',#847);
#256=VERTEX_POINT('',#851);
#257=VERTEX_POINT('',#853);
#258=VERTEX_POINT('',#856);
#259=VERTEX_POINT('',#860);
#260=VERTEX_POINT('',#864);
#261=VERTEX_POINT('',#866);
#262=VERTEX_POINT('',#869);
#263=VERTEX_POINT('',#873);
#264=VERTEX_POINT('',#877);
#265=VERTEX_POINT('',#879);
#266=VERTEX_POINT('',#882);
#267=VERTEX_POINT('',#886);
#268=VERTEX_POINT('',#890);
#269=VERTEX_POINT('',#892);
#270=VERTEX_POINT('',#895);
#271=VERTEX_POINT('',#899);
#272=VERTEX_POINT('',#903);
#273=VERTEX_POINT('',#905);
#274=VERTEX_POINT('',#912);
#275=VERTEX_POINT('',#914);
#276=VERTEX_POINT('',#918);
#277=VERTEX_POINT('',#920);
#278=VERTEX_POINT('',#925);
#279=VERTEX_POINT('',#927);
#280=EDGE_CURVE('',#242,#242,#204,.T.);
#281=EDGE_CURVE('',#242,#243,#166,.T.);
#282=EDGE_CURVE('',#243,#243,#205,.T.);
#283=EDGE_CURVE('',#244,#244,#206,.T.);
#284=EDGE_CURVE('',#244,#245,#167,.T.);
#285=EDGE_CURVE('',#245,#245,#207,.T.);
#286=EDGE_CURVE('',#246,#246,#208,.T.);
#287=EDGE_CURVE('',#246,#247,#168,.T.);
#288=EDGE_CURVE('',#247,#247,#209,.T.);
#289=EDGE_CURVE('',#248,#248,#210,.T.);
#290=EDGE_CURVE('',#248,#249,#169,.T.);
#291=EDGE_CURVE('',#249,#249,#211,.T.);
#292=EDGE_CURVE('',#250,#250,#212,.T.);
#293=EDGE_CURVE('',#250,#251,#170,.T.);
#294=EDGE_CURVE('',#251,#251,#213,.T.);
#295=EDGE_CURVE('',#252,#252,#214,.T.);
#296=EDGE_CURVE('',#252,#253,#171,.T.);
#297=EDGE_CURVE('',#253,#253,#215,.T.);
#298=EDGE_CURVE('',#254,#254,#216,.T.);
#299=EDGE_CURVE('',#254,#255,#172,.T.);
#300=EDGE_CURVE('',#255,#255,#217,.T.);
#301=EDGE_CURVE('',#256,#256,#218,.T.);
#302=EDGE_CURVE('',#257,#257,#219,.T.);
#303=EDGE_CURVE('',#258,#258,#220,.T.);
#304=EDGE_CURVE('',#258,#256,#173,.T.);
#305=EDGE_CURVE('',#257,#259,#174,.T.);
#306=EDGE_CURVE('',#259,#259,#221,.T.);
#307=EDGE_CURVE('',#260,#260,#222,.T.);
#308=EDGE_CURVE('',#261,#261,#223,.T.);
#309=EDGE_CURVE('',#262,#262,#224,.T.);
#310=EDGE_CURVE('',#262,#260,#175,.T.);
#311=EDGE_CURVE('',#261,#263,#176,.T.);
#312=EDGE_CURVE('',#263,#263,#225,.T.);
#313=EDGE_CURVE('',#264,#264,#226,.T.);
#314=EDGE_CURVE('',#265,#265,#227,.T.);
#315=EDGE_CURVE('',#266,#266,#228,.T.);
#316=EDGE_CURVE('',#266,#264,#177,.T.);
#317=EDGE_CURVE('',#265,#267,#178,.T.);
#318=EDGE_CURVE('',#267,#267,#229,.T.);
#319=EDGE_CURVE('',#268,#268,#230,.T.);
#320=EDGE_CURVE('',#269,#269,#231,.T.);
#321=EDGE_CURVE('',#270,#270,#232,.T.);
#322=EDGE_CURVE('',#270,#268,#179,.T.);
#323=EDGE_CURVE('',#269,#271,#180,.T.);
#324=EDGE_CURVE('',#271,#271,#233,.T.);
#325=EDGE_CURVE('',#272,#272,#234,.T.);
#326=EDGE_CURVE('',#272,#273,#181,.T.);
#327=EDGE_CURVE('',#273,#273,#235,.T.);
#328=EDGE_CURVE('',#274,#274,#236,.T.);
#329=EDGE_CURVE('',#274,#275,#182,.T.);
#330=EDGE_CURVE('',#275,#275,#237,.T.);
#331=EDGE_CURVE('',#276,#276,#238,.T.);
#332=EDGE_CURVE('',#276,#277,#183,.T.);
#333=EDGE_CURVE('',#277,#277,#239,.T.);
#334=EDGE_CURVE('',#278,#278,#240,.T.);
#335=EDGE_CURVE('',#278,#279,#184,.T.);
#336=EDGE_CURVE('',#279,#279,#241,.T.);
#337=ORIENTED_EDGE('',*,*,#280,.F.);
#338=ORIENTED_EDGE('',*,*,#281,.T.);
#339=ORIENTED_EDGE('',*,*,#282,.F.);
#340=ORIENTED_EDGE('',*,*,#281,.F.);
#341=ORIENTED_EDGE('',*,*,#283,.F.);
#342=ORIENTED_EDGE('',*,*,#284,.T.);
#343=ORIENTED_EDGE('',*,*,#285,.F.);
#344=ORIENTED_EDGE('',*,*,#284,.F.);
#345=ORIENTED_EDGE('',*,*,#286,.F.);
#346=ORIENTED_EDGE('',*,*,#287,.T.);
#347=ORIENTED_EDGE('',*,*,#288,.F.);
#348=ORIENTED_EDGE('',*,*,#287,.F.);
#349=ORIENTED_EDGE('',*,*,#289,.F.);
#350=ORIENTED_EDGE('',*,*,#290,.T.);
#351=ORIENTED_EDGE('',*,*,#291,.F.);
#352=ORIENTED_EDGE('',*,*,#290,.F.);
#353=ORIENTED_EDGE('',*,*,#292,.F.);
#354=ORIENTED_EDGE('',*,*,#293,.T.);
#355=ORIENTED_EDGE('',*,*,#294,.F.);
#356=ORIENTED_EDGE('',*,*,#293,.F.);
#357=ORIENTED_EDGE('',*,*,#295,.F.);
#358=ORIENTED_EDGE('',*,*,#296,.T.);
#359=ORIENTED_EDGE('',*,*,#297,.F.);
#360=ORIENTED_EDGE('',*,*,#296,.F.);
#361=ORIENTED_EDGE('',*,*,#298,.F.);
#362=ORIENTED_EDGE('',*,*,#299,.T.);
#363=ORIENTED_EDGE('',*,*,#300,.F.);
#364=ORIENTED_EDGE('',*,*,#299,.F.);
#365=ORIENTED_EDGE('',*,*,#301,.T.);
#366=ORIENTED_EDGE('',*,*,#302,.F.);
#367=ORIENTED_EDGE('',*,*,#303,.F.);
#368=ORIENTED_EDGE('',*,*,#304,.T.);
#369=ORIENTED_EDGE('',*,*,#301,.F.);
#370=ORIENTED_EDGE('',*,*,#304,.F.);
#371=ORIENTED_EDGE('',*,*,#302,.T.);
#372=ORIENTED_EDGE('',*,*,#305,.T.);
#373=ORIENTED_EDGE('',*,*,#306,.F.);
#374=ORIENTED_EDGE('',*,*,#305,.F.);
#375=ORIENTED_EDGE('',*,*,#307,.T.);
#376=ORIENTED_EDGE('',*,*,#308,.F.);
#377=ORIENTED_EDGE('',*,*,#309,.F.);
#378=ORIENTED_EDGE('',*,*,#310,.T.);
#379=ORIENTED_EDGE('',*,*,#307,.F.);
#380=ORIENTED_EDGE('',*,*,#310,.F.);
#381=ORIENTED_EDGE('',*,*,#308,.T.);
#382=ORIENTED_EDGE('',*,*,#311,.T.);
#383=ORIENTED_EDGE('',*,*,#312,.F.);
#384=ORIENTED_EDGE('',*,*,#311,.F.);
#385=ORIENTED_EDGE('',*,*,#313,.T.);
#386=ORIENTED_EDGE('',*,*,#314,.F.);
#387=ORIENTED_EDGE('',*,*,#315,.F.);
#388=ORIENTED_EDGE('',*,*,#316,.T.);
#389=ORIENTED_EDGE('',*,*,#313,.F.);
#390=ORIENTED_EDGE('',*,*,#316,.F.);
#391=ORIENTED_EDGE('',*,*,#314,.T.);
#392=ORIENTED_EDGE('',*,*,#317,.T.);
#393=ORIENTED_EDGE('',*,*,#318,.F.);
#394=ORIENTED_EDGE('',*,*,#317,.F.);
#395=ORIENTED_EDGE('',*,*,#319,.T.);
#396=ORIENTED_EDGE('',*,*,#320,.F.);
#397=ORIENTED_EDGE('',*,*,#321,.F.);
#398=ORIENTED_EDGE('',*,*,#322,.T.);
#399=ORIENTED_EDGE('',*,*,#319,.F.);
#400=ORIENTED_EDGE('',*,*,#322,.F.);
#401=ORIENTED_EDGE('',*,*,#320,.T.);
#402=ORIENTED_EDGE('',*,*,#323,.T.);
#403=ORIENTED_EDGE('',*,*,#324,.F.);
#404=ORIENTED_EDGE('',*,*,#323,.F.);
#405=ORIENTED_EDGE('',*,*,#325,.F.);
#406=ORIENTED_EDGE('',*,*,#326,.T.);
#407=ORIENTED_EDGE('',*,*,#327,.T.);
#408=ORIENTED_EDGE('',*,*,#326,.F.);
#409=ORIENTED_EDGE('',*,*,#325,.T.);
#410=ORIENTED_EDGE('',*,*,#280,.T.);
#411=ORIENTED_EDGE('',*,*,#283,.T.);
#412=ORIENTED_EDGE('',*,*,#286,.T.);
#413=ORIENTED_EDGE('',*,*,#289,.T.);
#414=ORIENTED_EDGE('',*,*,#292,.T.);
#415=ORIENTED_EDGE('',*,*,#295,.T.);
#416=ORIENTED_EDGE('',*,*,#298,.T.);
#417=ORIENTED_EDGE('',*,*,#303,.T.);
#418=ORIENTED_EDGE('',*,*,#309,.T.);
#419=ORIENTED_EDGE('',*,*,#315,.T.);
#420=ORIENTED_EDGE('',*,*,#321,.T.);
#421=ORIENTED_EDGE('',*,*,#327,.F.);
#422=ORIENTED_EDGE('',*,*,#282,.T.);
#423=ORIENTED_EDGE('',*,*,#285,.T.);
#424=ORIENTED_EDGE('',*,*,#288,.T.);
#425=ORIENTED_EDGE('',*,*,#291,.T.);
#426=ORIENTED_EDGE('',*,*,#294,.T.);
#427=ORIENTED_EDGE('',*,*,#297,.T.);
#428=ORIENTED_EDGE('',*,*,#300,.T.);
#429=ORIENTED_EDGE('',*,*,#306,.T.);
#430=ORIENTED_EDGE('',*,*,#312,.T.);
#431=ORIENTED_EDGE('',*,*,#318,.T.);
#432=ORIENTED_EDGE('',*,*,#324,.T.);
#433=ORIENTED_EDGE('',*,*,#328,.F.);
#434=ORIENTED_EDGE('',*,*,#329,.T.);
#435=ORIENTED_EDGE('',*,*,#330,.F.);
#436=ORIENTED_EDGE('',*,*,#329,.F.);
#437=ORIENTED_EDGE('',*,*,#331,.F.);
#438=ORIENTED_EDGE('',*,*,#332,.T.);
#439=ORIENTED_EDGE('',*,*,#333,.F.);
#440=ORIENTED_EDGE('',*,*,#332,.F.);
#441=ORIENTED_EDGE('',*,*,#331,.T.);
#442=ORIENTED_EDGE('',*,*,#328,.T.);
#443=ORIENTED_EDGE('',*,*,#334,.F.);
#444=ORIENTED_EDGE('',*,*,#335,.T.);
#445=ORIENTED_EDGE('',*,*,#336,.T.);
#446=ORIENTED_EDGE('',*,*,#335,.F.);
#447=ORIENTED_EDGE('',*,*,#334,.T.);
#448=ORIENTED_EDGE('',*,*,#333,.T.);
#449=ORIENTED_EDGE('',*,*,#336,.F.);
#450=ORIENTED_EDGE('',*,*,#330,.T.);
#451=CYLINDRICAL_SURFACE('',#564,1.2295);
#452=CYLINDRICAL_SURFACE('',#567,1.2295);
#453=CYLINDRICAL_SURFACE('',#570,1.2295);
#454=CYLINDRICAL_SURFACE('',#573,1.2295);
#455=CYLINDRICAL_SURFACE('',#576,1.2295);
#456=CYLINDRICAL_SURFACE('',#579,1.2295);
#457=CYLINDRICAL_SURFACE('',#582,3.);
#458=CYLINDRICAL_SURFACE('',#588,3.);
#459=CYLINDRICAL_SURFACE('',#590,1.55);
#460=CYLINDRICAL_SURFACE('',#595,3.);
#461=CYLINDRICAL_SURFACE('',#597,1.55);
#462=CYLINDRICAL_SURFACE('',#602,3.);
#463=CYLINDRICAL_SURFACE('',#604,1.55);
#464=CYLINDRICAL_SURFACE('',#609,3.);
#465=CYLINDRICAL_SURFACE('',#611,1.55);
#466=CYLINDRICAL_SURFACE('',#613,19.);
#467=CYLINDRICAL_SURFACE('',#619,1.2295);
#468=CYLINDRICAL_SURFACE('',#622,2.);
#469=CYLINDRICAL_SURFACE('',#626,4.);
#470=ADVANCED_FACE('',(#81),#451,.F.);
#471=ADVANCED_FACE('',(#82),#452,.F.);
#472=ADVANCED_FACE('',(#83),#453,.F.);
#473=ADVANCED_FACE('',(#84),#454,.F.);
#474=ADVANCED_FACE('',(#85),#455,.F.);
#475=ADVANCED_FACE('',(#86),#456,.F.);
#476=ADVANCED_FACE('',(#87),#457,.F.);
#477=ADVANCED_FACE('',(#88,#43),#72,.T.);
#478=ADVANCED_FACE('',(#89),#458,.F.);
#479=ADVANCED_FACE('',(#90),#459,.F.);
#480=ADVANCED_FACE('',(#91,#44),#73,.T.);
#481=ADVANCED_FACE('',(#92),#460,.F.);
#482=ADVANCED_FACE('',(#93),#461,.F.);
#483=ADVANCED_FACE('',(#94,#45),#74,.T.);
#484=ADVANCED_FACE('',(#95),#462,.F.);
#485=ADVANCED_FACE('',(#96),#463,.F.);
#486=ADVANCED_FACE('',(#97,#46),#75,.T.);
#487=ADVANCED_FACE('',(#98),#464,.F.);
#488=ADVANCED_FACE('',(#99),#465,.F.);
#489=ADVANCED_FACE('',(#100),#466,.T.);
#490=ADVANCED_FACE('',(#101,#47,#48,#49,#50,#51,#52,#53,#54,#55,#56,#57),
#76,.T.);
#491=ADVANCED_FACE('',(#102,#58,#59,#60,#61,#62,#63,#64,#65,#66,#67,#68),
#77,.F.);
#492=ADVANCED_FACE('',(#103),#467,.F.);
#493=ADVANCED_FACE('',(#104),#468,.T.);
#494=ADVANCED_FACE('',(#105,#69),#78,.T.);
#495=ADVANCED_FACE('',(#106),#469,.T.);
#496=ADVANCED_FACE('',(#107,#70),#79,.T.);
#497=ADVANCED_FACE('',(#108,#71),#80,.F.);
#498=CLOSED_SHELL('',(#470,#471,#472,#473,#474,#475,#476,#477,#478,#479,
#480,#481,#482,#483,#484,#485,#486,#487,#488,#489,#490,#491));
#499=CLOSED_SHELL('',(#492,#493,#494,#495,#496,#497));
#500=DERIVED_UNIT_ELEMENT(#505,1.);
#501=DERIVED_UNIT_ELEMENT(#947,-3.);
#502=DERIVED_UNIT_ELEMENT(#505,1.);
#503=DERIVED_UNIT_ELEMENT(#947,-3.);
#504=DIMENSIONAL_EXPONENTS(0.,1.,0.,0.,0.,0.,0.);
#505=(
CONVERSION_BASED_UNIT('gram',#507)
MASS_UNIT()
NAMED_UNIT(#504)
);
#506=(
MASS_UNIT()
NAMED_UNIT(*)
SI_UNIT(.KILO.,.GRAM.)
);
#507=MASS_MEASURE_WITH_UNIT(MASS_MEASURE(0.001),#506);
#508=DERIVED_UNIT((#500,#501));
#509=DERIVED_UNIT((#502,#503));
#510=MEASURE_REPRESENTATION_ITEM('density measure',
POSITIVE_RATIO_MEASURE(2.7),#508);
#511=MEASURE_REPRESENTATION_ITEM('density measure',
POSITIVE_RATIO_MEASURE(1.),#509);
#512=PROPERTY_DEFINITION_REPRESENTATION(#522,#516);
#513=PROPERTY_DEFINITION_REPRESENTATION(#523,#517);
#514=PROPERTY_DEFINITION_REPRESENTATION(#524,#518);
#515=PROPERTY_DEFINITION_REPRESENTATION(#525,#519);
#516=REPRESENTATION('material name',(#520),#943);
#517=REPRESENTATION('density',(#510),#943);
#518=REPRESENTATION('material name',(#521),#944);
#519=REPRESENTATION('density',(#511),#944);
#520=DESCRIPTIVE_REPRESENTATION_ITEM('\X2\30A230EB30DF30CB30A630E0\X0\ 
6061','\X2\30A230EB30DF30CB30A630E0\X0\ 6061');
#521=DESCRIPTIVE_REPRESENTATION_ITEM('\X2\4E00822C\X0\','\X2\4E00822C\X0\');
#522=PROPERTY_DEFINITION('material property','material name',#967);
#523=PROPERTY_DEFINITION('material property','density of part',#967);
#524=PROPERTY_DEFINITION('material property','material name',#968);
#525=PROPERTY_DEFINITION('material property','density of part',#968);
#526=PRESENTATION_STYLE_ASSIGNMENT((#528));
#527=PRESENTATION_STYLE_ASSIGNMENT((#529));
#528=SURFACE_STYLE_USAGE(.BOTH.,#534);
#529=SURFACE_STYLE_USAGE(.BOTH.,#535);
#530=SURFACE_STYLE_RENDERING_WITH_PROPERTIES($,#542,(#532));
#531=SURFACE_STYLE_RENDERING_WITH_PROPERTIES($,#543,(#533));
#532=SURFACE_STYLE_TRANSPARENT(0.);
#533=SURFACE_STYLE_TRANSPARENT(0.);
#534=SURFACE_SIDE_STYLE('',(#536,#530));
#535=SURFACE_SIDE_STYLE('',(#537,#531));
#536=SURFACE_STYLE_FILL_AREA(#538);
#537=SURFACE_STYLE_FILL_AREA(#539);
#538=FILL_AREA_STYLE('',(#540));
#539=FILL_AREA_STYLE('',(#541));
#540=FILL_AREA_STYLE_COLOUR('',#542);
#541=FILL_AREA_STYLE_COLOUR('',#543);
#542=COLOUR_RGB('',0.996078431372549,0.996078431372549,1.);
#543=COLOUR_RGB('',0.749019607843137,0.749019607843137,0.749019607843137);
#544=DATE_TIME_ROLE('creation_date');
#545=DATE_TIME_ROLE('creation_date');
#546=DATE_TIME_ROLE('creation_date');
#547=APPLIED_DATE_AND_TIME_ASSIGNMENT(#550,#544,(#966));
#548=APPLIED_DATE_AND_TIME_ASSIGNMENT(#551,#545,(#967));
#549=APPLIED_DATE_AND_TIME_ASSIGNMENT(#552,#546,(#968));
#550=DATE_AND_TIME(#553,#556);
#551=DATE_AND_TIME(#554,#557);
#552=DATE_AND_TIME(#555,#558);
#553=CALENDAR_DATE(2025,27,4);
#554=CALENDAR_DATE(2023,10,11);
#555=CALENDAR_DATE(2023,10,11);
#556=LOCAL_TIME(0,0,0.,#559);
#557=LOCAL_TIME(0,0,0.,#560);
#558=LOCAL_TIME(0,0,0.,#561);
#559=COORDINATED_UNIVERSAL_TIME_OFFSET(0,0,.BEHIND.);
#560=COORDINATED_UNIVERSAL_TIME_OFFSET(0,0,.BEHIND.);
#561=COORDINATED_UNIVERSAL_TIME_OFFSET(0,0,.BEHIND.);
#562=AXIS2_PLACEMENT_3D('',#806,#637,#638);
#563=AXIS2_PLACEMENT_3D('',#807,#639,#640);
#564=AXIS2_PLACEMENT_3D('',#808,#641,#642);
#565=AXIS2_PLACEMENT_3D('',#810,#643,#644);
#566=AXIS2_PLACEMENT_3D('',#813,#646,#647);
#567=AXIS2_PLACEMENT_3D('',#814,#648,#649);
#568=AXIS2_PLACEMENT_3D('',#816,#650,#651);
#569=AXIS2_PLACEMENT_3D('',#819,#653,#654);
#570=AXIS2_PLACEMENT_3D('',#820,#655,#656);
#571=AXIS2_PLACEMENT_3D('',#822,#657,#658);
#572=AXIS2_PLACEMENT_3D('',#825,#660,#661);
#573=AXIS2_PLACEMENT_3D('',#826,#662,#663);
#574=AXIS2_PLACEMENT_3D('',#828,#664,#665);
#575=AXIS2_PLACEMENT_3D('',#831,#667,#668);
#576=AXIS2_PLACEMENT_3D('',#832,#669,#670);
#577=AXIS2_PLACEMENT_3D('',#834,#671,#672);
#578=AXIS2_PLACEMENT_3D('',#837,#674,#675);
#579=AXIS2_PLACEMENT_3D('',#838,#676,#677);
#580=AXIS2_PLACEMENT_3D('',#840,#678,#679);
#581=AXIS2_PLACEMENT_3D('',#843,#681,#682);
#582=AXIS2_PLACEMENT_3D('',#844,#683,#684);
#583=AXIS2_PLACEMENT_3D('',#846,#685,#686);
#584=AXIS2_PLACEMENT_3D('',#849,#688,#689);
#585=AXIS2_PLACEMENT_3D('',#850,#690,#691);
#586=AXIS2_PLACEMENT_3D('',#852,#692,#693);
#587=AXIS2_PLACEMENT_3D('',#854,#694,#695);
#588=AXIS2_PLACEMENT_3D('',#855,#696,#697);
#589=AXIS2_PLACEMENT_3D('',#857,#698,#699);
#590=AXIS2_PLACEMENT_3D('',#859,#701,#702);
#591=AXIS2_PLACEMENT_3D('',#862,#704,#705);
#592=AXIS2_PLACEMENT_3D('',#863,#706,#707);
#593=AXIS2_PLACEMENT_3D('',#865,#708,#709);
#594=AXIS2_PLACEMENT_3D('',#867,#710,#711);
#595=AXIS2_PLACEMENT_3D('',#868,#712,#713);
#596=AXIS2_PLACEMENT_3D('',#870,#714,#715);
#597=AXIS2_PLACEMENT_3D('',#872,#717,#718);
#598=AXIS2_PLACEMENT_3D('',#875,#720,#721);
#599=AXIS2_PLACEMENT_3D('',#876,#722,#723);
#600=AXIS2_PLACEMENT_3D('',#878,#724,#725);
#601=AXIS2_PLACEMENT_3D('',#880,#726,#727);
#602=AXIS2_PLACEMENT_3D('',#881,#728,#729);
#603=AXIS2_PLACEMENT_3D('',#883,#730,#731);
#604=AXIS2_PLACEMENT_3D('',#885,#733,#734);
#605=AXIS2_PLACEMENT_3D('',#888,#736,#737);
#606=AXIS2_PLACEMENT_3D('',#889,#738,#739);
#607=AXIS2_PLACEMENT_3D('',#891,#740,#741);
#608=AXIS2_PLACEMENT_3D('',#893,#742,#743);
#609=AXIS2_PLACEMENT_3D('',#894,#744,#745);
#610=AXIS2_PLACEMENT_3D('',#896,#746,#747);
#611=AXIS2_PLACEMENT_3D('',#898,#749,#750);
#612=AXIS2_PLACEMENT_3D('',#901,#752,#753);
#613=AXIS2_PLACEMENT_3D('',#902,#754,#755);
#614=AXIS2_PLACEMENT_3D('',#904,#756,#757);
#615=AXIS2_PLACEMENT_3D('',#907,#759,#760);
#616=AXIS2_PLACEMENT_3D('',#908,#761,#762);
#617=AXIS2_PLACEMENT_3D('',#909,#763,#764);
#618=AXIS2_PLACEMENT_3D('',#910,#765,#766);
#619=AXIS2_PLACEMENT_3D('',#911,#767,#768);
#620=AXIS2_PLACEMENT_3D('',#913,#769,#770);
#621=AXIS2_PLACEMENT_3D('',#916,#772,#773);
#622=AXIS2_PLACEMENT_3D('',#917,#774,#775);
#623=AXIS2_PLACEMENT_3D('',#919,#776,#777);
#624=AXIS2_PLACEMENT_3D('',#922,#779,#780);
#625=AXIS2_PLACEMENT_3D('',#923,#781,#782);
#626=AXIS2_PLACEMENT_3D('',#924,#783,#784);
#627=AXIS2_PLACEMENT_3D('',#926,#785,#786);
#628=AXIS2_PLACEMENT_3D('',#929,#788,#789);
#629=AXIS2_PLACEMENT_3D('',#930,#790,#791);
#630=AXIS2_PLACEMENT_3D('',#931,#792,#793);
#631=AXIS2_PLACEMENT_3D('',#932,#794,#795);
#632=AXIS2_PLACEMENT_3D('',#933,#796,#797);
#633=AXIS2_PLACEMENT_3D('',#934,#798,#799);
#634=AXIS2_PLACEMENT_3D('',#935,#800,#801);
#635=AXIS2_PLACEMENT_3D('',#936,#802,#803);
#636=AXIS2_PLACEMENT_3D('',#937,#804,#805);
#637=DIRECTION('axis',(0.,0.,1.));
#638=DIRECTION('refdir',(1.,0.,0.));
#639=DIRECTION('axis',(0.,0.,1.));
#640=DIRECTION('refdir',(1.,0.,0.));
#641=DIRECTION('center_axis',(0.,1.,0.));
#642=DIRECTION('ref_axis',(1.,0.,0.));
#643=DIRECTION('center_axis',(0.,-1.,0.));
#644=DIRECTION('ref_axis',(1.,0.,0.));
#645=DIRECTION('',(0.,-1.,0.));
#646=DIRECTION('center_axis',(0.,1.,0.));
#647=DIRECTION('ref_axis',(1.,0.,0.));
#648=DIRECTION('center_axis',(0.,1.,0.));
#649=DIRECTION('ref_axis',(1.,0.,0.));
#650=DIRECTION('center_axis',(0.,-1.,0.));
#651=DIRECTION('ref_axis',(1.,0.,0.));
#652=DIRECTION('',(0.,-1.,0.));
#653=DIRECTION('center_axis',(0.,1.,0.));
#654=DIRECTION('ref_axis',(1.,0.,0.));
#655=DIRECTION('center_axis',(0.,1.,0.));
#656=DIRECTION('ref_axis',(1.,0.,0.));
#657=DIRECTION('center_axis',(0.,-1.,0.));
#658=DIRECTION('ref_axis',(1.,0.,0.));
#659=DIRECTION('',(0.,-1.,0.));
#660=DIRECTION('center_axis',(0.,1.,0.));
#661=DIRECTION('ref_axis',(1.,0.,0.));
#662=DIRECTION('center_axis',(0.,1.,0.));
#663=DIRECTION('ref_axis',(1.,0.,0.));
#664=DIRECTION('center_axis',(0.,-1.,0.));
#665=DIRECTION('ref_axis',(1.,0.,0.));
#666=DIRECTION('',(0.,-1.,0.));
#667=DIRECTION('center_axis',(0.,1.,0.));
#668=DIRECTION('ref_axis',(1.,0.,0.));
#669=DIRECTION('center_axis',(0.,1.,0.));
#670=DIRECTION('ref_axis',(1.,0.,0.));
#671=DIRECTION('center_axis',(0.,-1.,0.));
#672=DIRECTION('ref_axis',(1.,0.,0.));
#673=DIRECTION('',(0.,-1.,0.));
#674=DIRECTION('center_axis',(0.,1.,0.));
#675=DIRECTION('ref_axis',(1.,0.,0.));
#676=DIRECTION('center_axis',(0.,1.,0.));
#677=DIRECTION('ref_axis',(1.,0.,0.));
#678=DIRECTION('center_axis',(0.,-1.,0.));
#679=DIRECTION('ref_axis',(1.,0.,0.));
#680=DIRECTION('',(0.,-1.,0.));
#681=DIRECTION('center_axis',(0.,1.,0.));
#682=DIRECTION('ref_axis',(1.,0.,0.));
#683=DIRECTION('center_axis',(0.,1.,0.));
#684=DIRECTION('ref_axis',(1.,0.,0.));
#685=DIRECTION('center_axis',(0.,-1.,0.));
#686=DIRECTION('ref_axis',(1.,0.,0.));
#687=DIRECTION('',(0.,-1.,0.));
#688=DIRECTION('center_axis',(0.,1.,0.));
#689=DIRECTION('ref_axis',(1.,0.,0.));
#690=DIRECTION('center_axis',(0.,1.,0.));
#691=DIRECTION('ref_axis',(1.,0.,0.));
#692=DIRECTION('center_axis',(0.,1.,0.));
#693=DIRECTION('ref_axis',(1.,0.,0.));
#694=DIRECTION('center_axis',(0.,1.,0.));
#695=DIRECTION('ref_axis',(1.,0.,0.));
#696=DIRECTION('center_axis',(0.,1.,0.));
#697=DIRECTION('ref_axis',(1.,0.,0.));
#698=DIRECTION('center_axis',(0.,-1.,0.));
#699=DIRECTION('ref_axis',(1.,0.,0.));
#700=DIRECTION('',(0.,-1.,0.));
#701=DIRECTION('center_axis',(0.,1.,0.));
#702=DIRECTION('ref_axis',(1.,0.,0.));
#703=DIRECTION('',(0.,-1.,0.));
#704=DIRECTION('center_axis',(0.,1.,0.));
#705=DIRECTION('ref_axis',(1.,0.,0.));
#706=DIRECTION('center_axis',(0.,1.,0.));
#707=DIRECTION('ref_axis',(1.,0.,0.));
#708=DIRECTION('center_axis',(0.,1.,0.));
#709=DIRECTION('ref_axis',(1.,0.,0.));
#710=DIRECTION('center_axis',(0.,1.,0.));
#711=DIRECTION('ref_axis',(1.,0.,0.));
#712=DIRECTION('center_axis',(0.,1.,0.));
#713=DIRECTION('ref_axis',(1.,0.,0.));
#714=DIRECTION('center_axis',(0.,-1.,0.));
#715=DIRECTION('ref_axis',(1.,0.,0.));
#716=DIRECTION('',(0.,-1.,0.));
#717=DIRECTION('center_axis',(0.,1.,0.));
#718=DIRECTION('ref_axis',(1.,0.,0.));
#719=DIRECTION('',(0.,-1.,0.));
#720=DIRECTION('center_axis',(0.,1.,0.));
#721=DIRECTION('ref_axis',(1.,0.,0.));
#722=DIRECTION('center_axis',(0.,1.,0.));
#723=DIRECTION('ref_axis',(1.,0.,0.));
#724=DIRECTION('center_axis',(0.,1.,0.));
#725=DIRECTION('ref_axis',(1.,0.,0.));
#726=DIRECTION('center_axis',(0.,1.,0.));
#727=DIRECTION('ref_axis',(1.,0.,0.));
#728=DIRECTION('center_axis',(0.,1.,0.));
#729=DIRECTION('ref_axis',(1.,0.,0.));
#730=DIRECTION('center_axis',(0.,-1.,0.));
#731=DIRECTION('ref_axis',(1.,0.,0.));
#732=DIRECTION('',(0.,-1.,0.));
#733=DIRECTION('center_axis',(0.,1.,0.));
#734=DIRECTION('ref_axis',(1.,0.,0.));
#735=DIRECTION('',(0.,-1.,0.));
#736=DIRECTION('center_axis',(0.,1.,0.));
#737=DIRECTION('ref_axis',(1.,0.,0.));
#738=DIRECTION('center_axis',(0.,1.,0.));
#739=DIRECTION('ref_axis',(1.,0.,0.));
#740=DIRECTION('center_axis',(0.,1.,0.));
#741=DIRECTION('ref_axis',(1.,0.,0.));
#742=DIRECTION('center_axis',(0.,1.,0.));
#743=DIRECTION('ref_axis',(1.,0.,0.));
#744=DIRECTION('center_axis',(0.,1.,0.));
#745=DIRECTION('ref_axis',(1.,0.,0.));
#746=DIRECTION('center_axis',(0.,-1.,0.));
#747=DIRECTION('ref_axis',(1.,0.,0.));
#748=DIRECTION('',(0.,-1.,0.));
#749=DIRECTION('center_axis',(0.,1.,0.));
#750=DIRECTION('ref_axis',(1.,0.,0.));
#751=DIRECTION('',(0.,-1.,0.));
#752=DIRECTION('center_axis',(0.,1.,0.));
#753=DIRECTION('ref_axis',(1.,0.,0.));
#754=DIRECTION('center_axis',(0.,1.,0.));
#755=DIRECTION('ref_axis',(-1.,0.,0.));
#756=DIRECTION('center_axis',(0.,1.,0.));
#757=DIRECTION('ref_axis',(-1.,0.,0.));
#758=DIRECTION('',(0.,-1.,0.));
#759=DIRECTION('center_axis',(0.,1.,0.));
#760=DIRECTION('ref_axis',(-1.,0.,0.));
#761=DIRECTION('center_axis',(0.,1.,0.));
#762=DIRECTION('ref_axis',(0.,0.,1.));
#763=DIRECTION('center_axis',(0.,1.,0.));
#764=DIRECTION('ref_axis',(0.,0.,1.));
#765=DIRECTION('axis',(0.,0.,1.));
#766=DIRECTION('refdir',(1.,0.,0.));
#767=DIRECTION('center_axis',(0.,1.,0.));
#768=DIRECTION('ref_axis',(1.,0.,0.));
#769=DIRECTION('center_axis',(0.,-1.,0.));
#770=DIRECTION('ref_axis',(1.,0.,0.));
#771=DIRECTION('',(0.,-1.,0.));
#772=DIRECTION('center_axis',(0.,1.,0.));
#773=DIRECTION('ref_axis',(1.,0.,0.));
#774=DIRECTION('center_axis',(0.,1.,0.));
#775=DIRECTION('ref_axis',(1.,0.,0.));
#776=DIRECTION('center_axis',(0.,1.,0.));
#777=DIRECTION('ref_axis',(1.,0.,0.));
#778=DIRECTION('',(0.,-1.,0.));
#779=DIRECTION('center_axis',(0.,-1.,0.));
#780=DIRECTION('ref_axis',(1.,0.,0.));
#781=DIRECTION('center_axis',(0.,1.,0.));
#782=DIRECTION('ref_axis',(0.,0.,1.));
#783=DIRECTION('center_axis',(0.,1.,0.));
#784=DIRECTION('ref_axis',(-1.,0.,0.));
#785=DIRECTION('center_axis',(0.,1.,0.));
#786=DIRECTION('ref_axis',(-1.,0.,0.));
#787=DIRECTION('',(0.,-1.,0.));
#788=DIRECTION('center_axis',(0.,1.,0.));
#789=DIRECTION('ref_axis',(-1.,0.,0.));
#790=DIRECTION('center_axis',(0.,1.,0.));
#791=DIRECTION('ref_axis',(0.,0.,1.));
#792=DIRECTION('center_axis',(0.,1.,0.));
#793=DIRECTION('ref_axis',(0.,0.,1.));
#794=DIRECTION('',(-8.06787405042203E-5,-6.06569249627523E-17,0.99999999674547));
#795=DIRECTION('',(0.99999999674547,1.52655664892315E-16,8.06787405042203E-5));
#796=DIRECTION('',(0.,0.,1.));
#797=DIRECTION('',(1.,0.,0.));
#798=DIRECTION('',(0.00709329089913213,4.3433879975216E-19,0.999974842295655));
#799=DIRECTION('',(0.999974842295655,6.12307994922625E-17,-0.00709329089913213));
#800=DIRECTION('',(-8.06787405042203E-5,-6.06569249627523E-17,0.99999999674547));
#801=DIRECTION('',(0.99999999674547,1.52655664892315E-16,8.06787405042203E-5));
#802=DIRECTION('',(0.,0.,1.));
#803=DIRECTION('',(1.,0.,0.));
#804=DIRECTION('',(0.00709329089913213,4.3433879975216E-19,0.999974842295655));
#805=DIRECTION('',(0.999974842295655,6.12307994922625E-17,-0.00709329089913213));
#806=CARTESIAN_POINT('',(0.,0.,0.));
#807=CARTESIAN_POINT('',(0.,0.,0.));
#808=CARTESIAN_POINT('Origin',(7.50000000000001,-48.9722150740545,-12.9903810567666));
#809=CARTESIAN_POINT('',(6.27050000000001,5.,-12.9903810567666));
#810=CARTESIAN_POINT('Origin',(7.50000000000001,5.,-12.9903810567666));
#811=CARTESIAN_POINT('',(6.27050000000001,0.,-12.9903810567666));
#812=CARTESIAN_POINT('',(6.27050000000001,-48.9722150740545,-12.9903810567666));
#813=CARTESIAN_POINT('Origin',(7.50000000000001,0.,-12.9903810567666));
#814=CARTESIAN_POINT('Origin',(7.5,-48.9722150740545,12.9903810567666));
#815=CARTESIAN_POINT('',(6.2705,5.,12.9903810567666));
#816=CARTESIAN_POINT('Origin',(7.5,5.,12.9903810567666));
#817=CARTESIAN_POINT('',(6.2705,0.,12.9903810567666));
#818=CARTESIAN_POINT('',(6.2705,-48.9722150740545,12.9903810567666));
#819=CARTESIAN_POINT('Origin',(7.5,0.,12.9903810567666));
#820=CARTESIAN_POINT('Origin',(-15.,-48.9722150740545,0.));
#821=CARTESIAN_POINT('',(-16.2295,5.,1.50570323955167E-16));
#822=CARTESIAN_POINT('Origin',(-15.,5.,0.));
#823=CARTESIAN_POINT('',(-16.2295,0.,1.50570323955167E-16));
#824=CARTESIAN_POINT('',(-16.2295,-48.9722150740545,1.50570323955167E-16));
#825=CARTESIAN_POINT('Origin',(-15.,0.,0.));
#826=CARTESIAN_POINT('Origin',(-7.5,-48.9722150740545,12.9903810567666));
#827=CARTESIAN_POINT('',(-8.7295,5.,12.9903810567666));
#828=CARTESIAN_POINT('Origin',(-7.5,5.,12.9903810567666));
#829=CARTESIAN_POINT('',(-8.7295,0.,12.9903810567666));
#830=CARTESIAN_POINT('',(-8.7295,-48.9722150740545,12.9903810567666));
#831=CARTESIAN_POINT('Origin',(-7.5,0.,12.9903810567666));
#832=CARTESIAN_POINT('Origin',(15.,-48.9722150740545,1.83697019872103E-15));
#833=CARTESIAN_POINT('',(13.7705,5.,1.9875405226762E-15));
#834=CARTESIAN_POINT('Origin',(15.,5.,1.83697019872103E-15));
#835=CARTESIAN_POINT('',(13.7705,0.,1.9875405226762E-15));
#836=CARTESIAN_POINT('',(13.7705,-48.9722150740545,1.9875405226762E-15));
#837=CARTESIAN_POINT('Origin',(15.,0.,1.83697019872103E-15));
#838=CARTESIAN_POINT('Origin',(-7.49999999999999,-48.9722150740545,-12.9903810567666));
#839=CARTESIAN_POINT('',(-8.72949999999999,5.,-12.9903810567666));
#840=CARTESIAN_POINT('Origin',(-7.49999999999999,5.,-12.9903810567666));
#841=CARTESIAN_POINT('',(-8.72949999999999,0.,-12.9903810567666));
#842=CARTESIAN_POINT('',(-8.72949999999999,-48.9722150740545,-12.9903810567666));
#843=CARTESIAN_POINT('Origin',(-7.49999999999999,0.,-12.9903810567666));
#844=CARTESIAN_POINT('Origin',(0.,-48.9722150740545,0.));
#845=CARTESIAN_POINT('',(-3.,5.,3.67394039744206E-16));
#846=CARTESIAN_POINT('Origin',(0.,5.,0.));
#847=CARTESIAN_POINT('',(-3.,0.,3.67394039744206E-16));
#848=CARTESIAN_POINT('',(-3.,-48.9722150740545,3.67394039744206E-16));
#849=CARTESIAN_POINT('Origin',(0.,0.,0.));
#850=CARTESIAN_POINT('Origin',(7.,2.,8.57252759403147E-16));
#851=CARTESIAN_POINT('',(4.,2.,1.22464679914735E-15));
#852=CARTESIAN_POINT('Origin',(7.,2.,8.57252759403147E-16));
#853=CARTESIAN_POINT('',(5.45,2.,1.04707301327099E-15));
#854=CARTESIAN_POINT('Origin',(7.,2.,8.57252759403147E-16));
#855=CARTESIAN_POINT('Origin',(7.,3.5,8.57252759403147E-16));
#856=CARTESIAN_POINT('',(4.,5.,1.22464679914735E-15));
#857=CARTESIAN_POINT('Origin',(7.,5.,8.57252759403147E-16));
#858=CARTESIAN_POINT('',(4.,3.5,1.22464679914735E-15));
#859=CARTESIAN_POINT('Origin',(7.,-48.9722150740545,8.57252759403147E-16));
#860=CARTESIAN_POINT('',(5.45,0.,1.04707301327099E-15));
#861=CARTESIAN_POINT('',(5.45,-48.9722150740545,1.04707301327099E-15));
#862=CARTESIAN_POINT('Origin',(7.,0.,8.57252759403147E-16));
#863=CARTESIAN_POINT('Origin',(-7.,2.,0.));
#864=CARTESIAN_POINT('',(-10.,2.,3.67394039744206E-16));
#865=CARTESIAN_POINT('Origin',(-7.,2.,0.));
#866=CARTESIAN_POINT('',(-8.55,2.,1.8982025386784E-16));
#867=CARTESIAN_POINT('Origin',(-7.,2.,0.));
#868=CARTESIAN_POINT('Origin',(-7.,3.5,0.));
#869=CARTESIAN_POINT('',(-10.,5.,3.67394039744206E-16));
#870=CARTESIAN_POINT('Origin',(-7.,5.,0.));
#871=CARTESIAN_POINT('',(-10.,3.5,3.67394039744206E-16));
#872=CARTESIAN_POINT('Origin',(-7.,-48.9722150740545,0.));
#873=CARTESIAN_POINT('',(-8.55,0.,1.8982025386784E-16));
#874=CARTESIAN_POINT('',(-8.55,-48.9722150740545,1.8982025386784E-16));
#875=CARTESIAN_POINT('Origin',(-7.,0.,0.));
#876=CARTESIAN_POINT('Origin',(-4.28626379701574E-16,2.,7.));
#877=CARTESIAN_POINT('',(-3.,2.,7.));
#878=CARTESIAN_POINT('Origin',(-4.28626379701574E-16,2.,7.));
#879=CARTESIAN_POINT('',(-1.55,2.,7.));
#880=CARTESIAN_POINT('Origin',(-4.28626379701574E-16,2.,7.));
#881=CARTESIAN_POINT('Origin',(-4.28626379701574E-16,3.5,7.));
#882=CARTESIAN_POINT('',(-3.,5.,7.));
#883=CARTESIAN_POINT('Origin',(-4.28626379701574E-16,5.,7.));
#884=CARTESIAN_POINT('',(-3.,3.5,7.));
#885=CARTESIAN_POINT('Origin',(-4.28626379701574E-16,-48.9722150740545,
7.));
#886=CARTESIAN_POINT('',(-1.55,0.,7.));
#887=CARTESIAN_POINT('',(-1.55,-48.9722150740545,7.));
#888=CARTESIAN_POINT('Origin',(-4.28626379701574E-16,0.,7.));
#889=CARTESIAN_POINT('Origin',(1.28587913910472E-15,2.,-7.));
#890=CARTESIAN_POINT('',(-3.,2.,-7.));
#891=CARTESIAN_POINT('Origin',(1.28587913910472E-15,2.,-7.));
#892=CARTESIAN_POINT('',(-1.55,2.,-7.));
#893=CARTESIAN_POINT('Origin',(1.28587913910472E-15,2.,-7.));
#894=CARTESIAN_POINT('Origin',(1.28587913910472E-15,3.5,-7.));
#895=CARTESIAN_POINT('',(-3.,5.,-7.));
#896=CARTESIAN_POINT('Origin',(1.28587913910472E-15,5.,-7.));
#897=CARTESIAN_POINT('',(-3.,3.5,-7.));
#898=CARTESIAN_POINT('Origin',(1.28587913910472E-15,-48.9722150740545,-7.));
#899=CARTESIAN_POINT('',(-1.55,0.,-7.));
#900=CARTESIAN_POINT('',(-1.55,-48.9722150740545,-7.));
#901=CARTESIAN_POINT('Origin',(1.28587913910472E-15,0.,-7.));
#902=CARTESIAN_POINT('Origin',(0.,0.,0.));
#903=CARTESIAN_POINT('',(19.,5.,-2.32682891837997E-15));
#904=CARTESIAN_POINT('Origin',(0.,5.,0.));
#905=CARTESIAN_POINT('',(19.,0.,-2.32682891837997E-15));
#906=CARTESIAN_POINT('',(19.,0.,-2.32682891837997E-15));
#907=CARTESIAN_POINT('Origin',(0.,0.,0.));
#908=CARTESIAN_POINT('Origin',(0.,5.,0.));
#909=CARTESIAN_POINT('Origin',(0.,0.,0.));
#910=CARTESIAN_POINT('',(0.,0.,0.));
#911=CARTESIAN_POINT('Origin',(0.,-7.36931687685298,0.));
#912=CARTESIAN_POINT('',(-1.2295,5.,1.50570323955167E-16));
#913=CARTESIAN_POINT('Origin',(0.,5.,0.));
#914=CARTESIAN_POINT('',(-1.2295,0.,1.50570323955167E-16));
#915=CARTESIAN_POINT('',(-1.2295,-7.36931687685298,1.50570323955167E-16));
#916=CARTESIAN_POINT('Origin',(0.,0.,0.));
#917=CARTESIAN_POINT('Origin',(0.,0.75,0.));
#918=CARTESIAN_POINT('',(-2.,5.,2.44929359829471E-16));
#919=CARTESIAN_POINT('Origin',(0.,5.,0.));
#920=CARTESIAN_POINT('',(-2.,0.75,2.44929359829471E-16));
#921=CARTESIAN_POINT('',(-2.,0.75,2.44929359829471E-16));
#922=CARTESIAN_POINT('Origin',(0.,0.75,0.));
#923=CARTESIAN_POINT('Origin',(0.,5.,0.));
#924=CARTESIAN_POINT('Origin',(0.,0.,0.));
#925=CARTESIAN_POINT('',(4.,0.75,-4.89858719658941E-16));
#926=CARTESIAN_POINT('Origin',(0.,0.75,0.));
#927=CARTESIAN_POINT('',(4.,0.,-4.89858719658941E-16));
#928=CARTESIAN_POINT('',(4.,0.,-4.89858719658941E-16));
#929=CARTESIAN_POINT('Origin',(0.,0.,0.));
#930=CARTESIAN_POINT('Origin',(0.,0.75,0.));
#931=CARTESIAN_POINT('Origin',(0.,0.,0.));
#932=CARTESIAN_POINT('',(-15.,1.49211004431368E-15,-20.124860247962));
#933=CARTESIAN_POINT('',(0.,0.,0.));
#934=CARTESIAN_POINT('',(15.,1.22069259672565E-16,-20.124860247962));
#935=CARTESIAN_POINT('',(25.1,1.49211004431368E-15,-20.124860247962));
#936=CARTESIAN_POINT('',(40.1,0.,0.));
#937=CARTESIAN_POINT('',(55.1,6.77180771985144E-16,-20.124860247962));
#938=UNCERTAINTY_MEASURE_WITH_UNIT(LENGTH_MEASURE(0.01),#946,
'DISTANCE_ACCURACY_VALUE',
'Maximum model space distance between geometric entities at asserted c
onnectivities');
#939=UNCERTAINTY_MEASURE_WITH_UNIT(LENGTH_MEASURE(0.01),#946,
'DISTANCE_ACCURACY_VALUE',
'Maximum model space distance between geometric entities at asserted c
onnectivities');
#940=UNCERTAINTY_MEASURE_WITH_UNIT(LENGTH_MEASURE(0.01),#946,
'DISTANCE_ACCURACY_VALUE',
'Maximum model space distance between geometric entities at asserted c
onnectivities');
#941=UNCERTAINTY_MEASURE_WITH_UNIT(LENGTH_MEASURE(0.01),#946,
'DISTANCE_ACCURACY_VALUE',
'Maximum model space distance between geometric entities at asserted c
onnectivities');
#942=(
GEOMETRIC_REPRESENTATION_CONTEXT(3)
GLOBAL_UNCERTAINTY_ASSIGNED_CONTEXT((#938))
GLOBAL_UNIT_ASSIGNED_CONTEXT((#946,#948,#949))
REPRESENTATION_CONTEXT('','3D')
);
#943=(
GEOMETRIC_REPRESENTATION_CONTEXT(3)
GLOBAL_UNCERTAINTY_ASSIGNED_CONTEXT((#939))
GLOBAL_UNIT_ASSIGNED_CONTEXT((#946,#948,#949))
REPRESENTATION_CONTEXT('','3D')
);
#944=(
GEOMETRIC_REPRESENTATION_CONTEXT(3)
GLOBAL_UNCERTAINTY_ASSIGNED_CONTEXT((#940))
GLOBAL_UNIT_ASSIGNED_CONTEXT((#946,#948,#949))
REPRESENTATION_CONTEXT('','3D')
);
#945=(
GEOMETRIC_REPRESENTATION_CONTEXT(3)
GLOBAL_UNCERTAINTY_ASSIGNED_CONTEXT((#941))
GLOBAL_UNIT_ASSIGNED_CONTEXT((#946,#948,#949))
REPRESENTATION_CONTEXT('','3D')
);
#946=(
LENGTH_UNIT()
NAMED_UNIT(*)
SI_UNIT(.MILLI.,.METRE.)
);
#947=(
LENGTH_UNIT()
NAMED_UNIT(*)
SI_UNIT(.CENTI.,.METRE.)
);
#948=(
NAMED_UNIT(*)
PLANE_ANGLE_UNIT()
SI_UNIT($,.RADIAN.)
);
#949=(
NAMED_UNIT(*)
SI_UNIT($,.STERADIAN.)
SOLID_ANGLE_UNIT()
);
#950=SHAPE_DEFINITION_REPRESENTATION(#953,#962);
#951=SHAPE_DEFINITION_REPRESENTATION(#954,#963);
#952=SHAPE_DEFINITION_REPRESENTATION(#955,#964);
#953=PRODUCT_DEFINITION_SHAPE('',$,#966);
#954=PRODUCT_DEFINITION_SHAPE('',$,#967);
#955=PRODUCT_DEFINITION_SHAPE('',$,#968);
#956=PRODUCT_DEFINITION_SHAPE($,$,#29);
#957=PRODUCT_DEFINITION_SHAPE($,$,#30);
#958=PRODUCT_DEFINITION_SHAPE($,$,#31);
#959=PRODUCT_DEFINITION_SHAPE($,$,#32);
#960=PRODUCT_DEFINITION_SHAPE($,$,#33);
#961=PRODUCT_DEFINITION_SHAPE($,$,#34);
#962=SHAPE_REPRESENTATION('',(#562,#631,#632,#633,#634,#635,#636),#942);
#963=SHAPE_REPRESENTATION('',(#563),#943);
#964=SHAPE_REPRESENTATION('',(#618),#944);
#965=PRODUCT_DEFINITION_CONTEXT('part definition',#976,'design');
#966=PRODUCT_DEFINITION('Leg_t5_CAM','Leg_t5_CAM',#969,#965);
#967=PRODUCT_DEFINITION('Part10','hip_joint_yaw_spacer_3',#970,#965);
#968=PRODUCT_DEFINITION('roll_free_horn_axis_2','roll_free_horn_axis_2',
#971,#965);
#969=PRODUCT_DEFINITION_FORMATION('',$,#978);
#970=PRODUCT_DEFINITION_FORMATION('',$,#979);
#971=PRODUCT_DEFINITION_FORMATION('',$,#980);
#972=PRODUCT_RELATED_PRODUCT_CATEGORY('Leg_t5_CAM','Leg_t5_CAM',(#978));
#973=PRODUCT_RELATED_PRODUCT_CATEGORY('hip_joint_yaw_spacer_3',
'hip_joint_yaw_spacer_3',(#979));
#974=PRODUCT_RELATED_PRODUCT_CATEGORY('roll_free_horn_axis_2',
'roll_free_horn_axis_2',(#980));
#975=APPLICATION_PROTOCOL_DEFINITION('international standard',
'automotive_design',2009,#976);
#976=APPLICATION_CONTEXT(
'Core Data for Automotive Mechanical Design Process');
#977=PRODUCT_CONTEXT('part definition',#976,'mechanical');
#978=PRODUCT('Leg_t5_CAM','Leg_t5_CAM',$,(#977));
#979=PRODUCT('Part10','hip_joint_yaw_spacer_3',$,(#977));
#980=PRODUCT('roll_free_horn_axis_2','roll_free_horn_axis_2',$,(#977));
ENDSEC;
END-ISO-10303-21;
