ISO-10303-21;
HEADER;
/* Generated by software containing ST-Developer
 * from STEP Tools, Inc. (www.steptools.com) 
 */

FILE_DESCRIPTION(
/* description */ (''),
/* implementation_level */ '2;1');

FILE_NAME(
/* name */ 'Leg_Waist_t5_CAM.stp',
/* time_stamp */ '2025-10-30T22:45:30+09:00',
/* author */ ('rei_r'),
/* organization */ (''),
/* preprocessor_version */ 'ST-DEVELOPER v20.1',
/* originating_system */ 'Autodesk Inventor 2026',
/* authorisation */ '');

FILE_SCHEMA (('AUTOMOTIVE_DESIGN { 1 0 10303 214 3 1 1 }'));
ENDSEC;

DATA;
#10=MECHANICAL_DESIGN_GEOMETRIC_PRESENTATION_REPRESENTATION('',(#45,#46,
#47),#1641);
#11=ITEM_DEFINED_TRANSFORMATION($,$,#1024,#1092);
#12=ITEM_DEFINED_TRANSFORMATION($,$,#969,#1093);
#13=ITEM_DEFINED_TRANSFORMATION($,$,#1024,#1094);
#14=ITEM_DEFINED_TRANSFORMATION($,$,#1024,#1095);
#15=ITEM_DEFINED_TRANSFORMATION($,$,#969,#1096);
#16=ITEM_DEFINED_TRANSFORMATION($,$,#1024,#1097);
#17=ITEM_DEFINED_TRANSFORMATION($,$,#1037,#1098);
#18=(
REPRESENTATION_RELATIONSHIP($,$,#1663,#1661)
REPRESENTATION_RELATIONSHIP_WITH_TRANSFORMATION(#11)
SHAPE_REPRESENTATION_RELATIONSHIP()
);
#19=(
REPRESENTATION_RELATIONSHIP($,$,#1662,#1661)
REPRESENTATION_RELATIONSHIP_WITH_TRANSFORMATION(#12)
SHAPE_REPRESENTATION_RELATIONSHIP()
);
#20=(
REPRESENTATION_RELATIONSHIP($,$,#1663,#1661)
REPRESENTATION_RELATIONSHIP_WITH_TRANSFORMATION(#13)
SHAPE_REPRESENTATION_RELATIONSHIP()
);
#21=(
REPRESENTATION_RELATIONSHIP($,$,#1663,#1661)
REPRESENTATION_RELATIONSHIP_WITH_TRANSFORMATION(#14)
SHAPE_REPRESENTATION_RELATIONSHIP()
);
#22=(
REPRESENTATION_RELATIONSHIP($,$,#1662,#1661)
REPRESENTATION_RELATIONSHIP_WITH_TRANSFORMATION(#15)
SHAPE_REPRESENTATION_RELATIONSHIP()
);
#23=(
REPRESENTATION_RELATIONSHIP($,$,#1663,#1661)
REPRESENTATION_RELATIONSHIP_WITH_TRANSFORMATION(#16)
SHAPE_REPRESENTATION_RELATIONSHIP()
);
#24=(
REPRESENTATION_RELATIONSHIP($,$,#1664,#1661)
REPRESENTATION_RELATIONSHIP_WITH_TRANSFORMATION(#17)
SHAPE_REPRESENTATION_RELATIONSHIP()
);
#25=CONTEXT_DEPENDENT_SHAPE_REPRESENTATION(#18,#1654);
#26=CONTEXT_DEPENDENT_SHAPE_REPRESENTATION(#19,#1655);
#27=CONTEXT_DEPENDENT_SHAPE_REPRESENTATION(#20,#1656);
#28=CONTEXT_DEPENDENT_SHAPE_REPRESENTATION(#21,#1657);
#29=CONTEXT_DEPENDENT_SHAPE_REPRESENTATION(#22,#1658);
#30=CONTEXT_DEPENDENT_SHAPE_REPRESENTATION(#23,#1659);
#31=CONTEXT_DEPENDENT_SHAPE_REPRESENTATION(#24,#1660);
#32=NEXT_ASSEMBLY_USAGE_OCCURRENCE('roll_free_horn_axis_2:1',
'roll_free_horn_axis_2:1','roll_free_horn_axis_2:1',#1666,#1668,
'roll_free_horn_axis_2:1');
#33=NEXT_ASSEMBLY_USAGE_OCCURRENCE('hip_joint_yaw_spacer_3:1',
'hip_joint_yaw_spacer_3:1','hip_joint_yaw_spacer_3:1',#1666,#1667,
'hip_joint_yaw_spacer_3:1');
#34=NEXT_ASSEMBLY_USAGE_OCCURRENCE('roll_free_horn_axis_2:2',
'roll_free_horn_axis_2:2','roll_free_horn_axis_2:2',#1666,#1668,
'roll_free_horn_axis_2:2');
#35=NEXT_ASSEMBLY_USAGE_OCCURRENCE('roll_free_horn_axis_2:3',
'roll_free_horn_axis_2:3','roll_free_horn_axis_2:3',#1666,#1668,
'roll_free_horn_axis_2:3');
#36=NEXT_ASSEMBLY_USAGE_OCCURRENCE('hip_joint_yaw_spacer_3:2',
'hip_joint_yaw_spacer_3:2','hip_joint_yaw_spacer_3:2',#1666,#1667,
'hip_joint_yaw_spacer_3:2');
#37=NEXT_ASSEMBLY_USAGE_OCCURRENCE('roll_free_horn_axis_2:4',
'roll_free_horn_axis_2:4','roll_free_horn_axis_2:4',#1666,#1668,
'roll_free_horn_axis_2:4');
#38=NEXT_ASSEMBLY_USAGE_OCCURRENCE('waist_spacer:1','waist_spacer:1',
'waist_spacer:1',#1666,#1669,'waist_spacer:1');
#39=SHAPE_REPRESENTATION_RELATIONSHIP('SRR','None',#1662,#42);
#40=SHAPE_REPRESENTATION_RELATIONSHIP('SRR','None',#1663,#43);
#41=SHAPE_REPRESENTATION_RELATIONSHIP('SRR','None',#1664,#44);
#42=ADVANCED_BREP_SHAPE_REPRESENTATION('',(#48),#1638);
#43=ADVANCED_BREP_SHAPE_REPRESENTATION('',(#49),#1639);
#44=ADVANCED_BREP_SHAPE_REPRESENTATION('',(#50),#1640);
#45=STYLED_ITEM('',(#926),#48);
#46=STYLED_ITEM('',(#927),#49);
#47=STYLED_ITEM('',(#926),#50);
#48=MANIFOLD_SOLID_BREP('\X2\30BD30EA30C330C9\X0\1',#886);
#49=MANIFOLD_SOLID_BREP('\X2\30BD30EA30C330C9\X0\1',#887);
#50=MANIFOLD_SOLID_BREP('\X2\30BD30EA30C330C9\X0\1',#888);
#51=FACE_BOUND('',#179,.T.);
#52=FACE_BOUND('',#183,.T.);
#53=FACE_BOUND('',#187,.T.);
#54=FACE_BOUND('',#191,.T.);
#55=FACE_BOUND('',#196,.T.);
#56=FACE_BOUND('',#197,.T.);
#57=FACE_BOUND('',#198,.T.);
#58=FACE_BOUND('',#199,.T.);
#59=FACE_BOUND('',#200,.T.);
#60=FACE_BOUND('',#201,.T.);
#61=FACE_BOUND('',#202,.T.);
#62=FACE_BOUND('',#203,.T.);
#63=FACE_BOUND('',#204,.T.);
#64=FACE_BOUND('',#205,.T.);
#65=FACE_BOUND('',#206,.T.);
#66=FACE_BOUND('',#208,.T.);
#67=FACE_BOUND('',#209,.T.);
#68=FACE_BOUND('',#210,.T.);
#69=FACE_BOUND('',#211,.T.);
#70=FACE_BOUND('',#212,.T.);
#71=FACE_BOUND('',#213,.T.);
#72=FACE_BOUND('',#214,.T.);
#73=FACE_BOUND('',#215,.T.);
#74=FACE_BOUND('',#216,.T.);
#75=FACE_BOUND('',#217,.T.);
#76=FACE_BOUND('',#218,.T.);
#77=FACE_BOUND('',#222,.T.);
#78=FACE_BOUND('',#225,.T.);
#79=FACE_BOUND('',#227,.T.);
#80=FACE_BOUND('',#236,.T.);
#81=FACE_BOUND('',#240,.T.);
#82=FACE_BOUND('',#244,.T.);
#83=FACE_BOUND('',#248,.T.);
#84=FACE_BOUND('',#253,.T.);
#85=FACE_BOUND('',#254,.T.);
#86=FACE_BOUND('',#255,.T.);
#87=FACE_BOUND('',#256,.T.);
#88=FACE_BOUND('',#257,.T.);
#89=FACE_BOUND('',#258,.T.);
#90=FACE_BOUND('',#259,.T.);
#91=FACE_BOUND('',#260,.T.);
#92=FACE_BOUND('',#261,.T.);
#93=FACE_BOUND('',#262,.T.);
#94=FACE_BOUND('',#263,.T.);
#95=FACE_BOUND('',#265,.T.);
#96=FACE_BOUND('',#266,.T.);
#97=FACE_BOUND('',#267,.T.);
#98=FACE_BOUND('',#268,.T.);
#99=FACE_BOUND('',#269,.T.);
#100=FACE_BOUND('',#270,.T.);
#101=FACE_BOUND('',#271,.T.);
#102=FACE_BOUND('',#272,.T.);
#103=FACE_BOUND('',#273,.T.);
#104=FACE_BOUND('',#274,.T.);
#105=FACE_BOUND('',#275,.T.);
#106=PLANE('',#991);
#107=PLANE('',#998);
#108=PLANE('',#1005);
#109=PLANE('',#1012);
#110=PLANE('',#1022);
#111=PLANE('',#1023);
#112=PLANE('',#1031);
#113=PLANE('',#1035);
#114=PLANE('',#1036);
#115=PLANE('',#1059);
#116=PLANE('',#1066);
#117=PLANE('',#1073);
#118=PLANE('',#1080);
#119=PLANE('',#1090);
#120=PLANE('',#1091);
#121=FACE_OUTER_BOUND('',#171,.T.);
#122=FACE_OUTER_BOUND('',#172,.T.);
#123=FACE_OUTER_BOUND('',#173,.T.);
#124=FACE_OUTER_BOUND('',#174,.T.);
#125=FACE_OUTER_BOUND('',#175,.T.);
#126=FACE_OUTER_BOUND('',#176,.T.);
#127=FACE_OUTER_BOUND('',#177,.T.);
#128=FACE_OUTER_BOUND('',#178,.T.);
#129=FACE_OUTER_BOUND('',#180,.T.);
#130=FACE_OUTER_BOUND('',#181,.T.);
#131=FACE_OUTER_BOUND('',#182,.T.);
#132=FACE_OUTER_BOUND('',#184,.T.);
#133=FACE_OUTER_BOUND('',#185,.T.);
#134=FACE_OUTER_BOUND('',#186,.T.);
#135=FACE_OUTER_BOUND('',#188,.T.);
#136=FACE_OUTER_BOUND('',#189,.T.);
#137=FACE_OUTER_BOUND('',#190,.T.);
#138=FACE_OUTER_BOUND('',#192,.T.);
#139=FACE_OUTER_BOUND('',#193,.T.);
#140=FACE_OUTER_BOUND('',#194,.T.);
#141=FACE_OUTER_BOUND('',#195,.T.);
#142=FACE_OUTER_BOUND('',#207,.T.);
#143=FACE_OUTER_BOUND('',#219,.T.);
#144=FACE_OUTER_BOUND('',#220,.T.);
#145=FACE_OUTER_BOUND('',#221,.T.);
#146=FACE_OUTER_BOUND('',#223,.T.);
#147=FACE_OUTER_BOUND('',#224,.T.);
#148=FACE_OUTER_BOUND('',#226,.T.);
#149=FACE_OUTER_BOUND('',#228,.T.);
#150=FACE_OUTER_BOUND('',#229,.T.);
#151=FACE_OUTER_BOUND('',#230,.T.);
#152=FACE_OUTER_BOUND('',#231,.T.);
#153=FACE_OUTER_BOUND('',#232,.T.);
#154=FACE_OUTER_BOUND('',#233,.T.);
#155=FACE_OUTER_BOUND('',#234,.T.);
#156=FACE_OUTER_BOUND('',#235,.T.);
#157=FACE_OUTER_BOUND('',#237,.T.);
#158=FACE_OUTER_BOUND('',#238,.T.);
#159=FACE_OUTER_BOUND('',#239,.T.);
#160=FACE_OUTER_BOUND('',#241,.T.);
#161=FACE_OUTER_BOUND('',#242,.T.);
#162=FACE_OUTER_BOUND('',#243,.T.);
#163=FACE_OUTER_BOUND('',#245,.T.);
#164=FACE_OUTER_BOUND('',#246,.T.);
#165=FACE_OUTER_BOUND('',#247,.T.);
#166=FACE_OUTER_BOUND('',#249,.T.);
#167=FACE_OUTER_BOUND('',#250,.T.);
#168=FACE_OUTER_BOUND('',#251,.T.);
#169=FACE_OUTER_BOUND('',#252,.T.);
#170=FACE_OUTER_BOUND('',#264,.T.);
#171=EDGE_LOOP('',(#591,#592,#593,#594));
#172=EDGE_LOOP('',(#595,#596,#597,#598));
#173=EDGE_LOOP('',(#599,#600,#601,#602));
#174=EDGE_LOOP('',(#603,#604,#605,#606));
#175=EDGE_LOOP('',(#607,#608,#609,#610));
#176=EDGE_LOOP('',(#611,#612,#613,#614));
#177=EDGE_LOOP('',(#615,#616,#617,#618));
#178=EDGE_LOOP('',(#619));
#179=EDGE_LOOP('',(#620));
#180=EDGE_LOOP('',(#621,#622,#623,#624));
#181=EDGE_LOOP('',(#625,#626,#627,#628));
#182=EDGE_LOOP('',(#629));
#183=EDGE_LOOP('',(#630));
#184=EDGE_LOOP('',(#631,#632,#633,#634));
#185=EDGE_LOOP('',(#635,#636,#637,#638));
#186=EDGE_LOOP('',(#639));
#187=EDGE_LOOP('',(#640));
#188=EDGE_LOOP('',(#641,#642,#643,#644));
#189=EDGE_LOOP('',(#645,#646,#647,#648));
#190=EDGE_LOOP('',(#649));
#191=EDGE_LOOP('',(#650));
#192=EDGE_LOOP('',(#651,#652,#653,#654));
#193=EDGE_LOOP('',(#655,#656,#657,#658));
#194=EDGE_LOOP('',(#659,#660,#661,#662));
#195=EDGE_LOOP('',(#663));
#196=EDGE_LOOP('',(#664));
#197=EDGE_LOOP('',(#665));
#198=EDGE_LOOP('',(#666));
#199=EDGE_LOOP('',(#667));
#200=EDGE_LOOP('',(#668));
#201=EDGE_LOOP('',(#669));
#202=EDGE_LOOP('',(#670));
#203=EDGE_LOOP('',(#671));
#204=EDGE_LOOP('',(#672));
#205=EDGE_LOOP('',(#673));
#206=EDGE_LOOP('',(#674));
#207=EDGE_LOOP('',(#675));
#208=EDGE_LOOP('',(#676));
#209=EDGE_LOOP('',(#677));
#210=EDGE_LOOP('',(#678));
#211=EDGE_LOOP('',(#679));
#212=EDGE_LOOP('',(#680));
#213=EDGE_LOOP('',(#681));
#214=EDGE_LOOP('',(#682));
#215=EDGE_LOOP('',(#683));
#216=EDGE_LOOP('',(#684));
#217=EDGE_LOOP('',(#685));
#218=EDGE_LOOP('',(#686));
#219=EDGE_LOOP('',(#687,#688,#689,#690));
#220=EDGE_LOOP('',(#691,#692,#693,#694));
#221=EDGE_LOOP('',(#695));
#222=EDGE_LOOP('',(#696));
#223=EDGE_LOOP('',(#697,#698,#699,#700));
#224=EDGE_LOOP('',(#701));
#225=EDGE_LOOP('',(#702));
#226=EDGE_LOOP('',(#703));
#227=EDGE_LOOP('',(#704));
#228=EDGE_LOOP('',(#705,#706,#707,#708));
#229=EDGE_LOOP('',(#709,#710,#711,#712));
#230=EDGE_LOOP('',(#713,#714,#715,#716));
#231=EDGE_LOOP('',(#717,#718,#719,#720));
#232=EDGE_LOOP('',(#721,#722,#723,#724));
#233=EDGE_LOOP('',(#725,#726,#727,#728));
#234=EDGE_LOOP('',(#729,#730,#731,#732));
#235=EDGE_LOOP('',(#733));
#236=EDGE_LOOP('',(#734));
#237=EDGE_LOOP('',(#735,#736,#737,#738));
#238=EDGE_LOOP('',(#739,#740,#741,#742));
#239=EDGE_LOOP('',(#743));
#240=EDGE_LOOP('',(#744));
#241=EDGE_LOOP('',(#745,#746,#747,#748));
#242=EDGE_LOOP('',(#749,#750,#751,#752));
#243=EDGE_LOOP('',(#753));
#244=EDGE_LOOP('',(#754));
#245=EDGE_LOOP('',(#755,#756,#757,#758));
#246=EDGE_LOOP('',(#759,#760,#761,#762));
#247=EDGE_LOOP('',(#763));
#248=EDGE_LOOP('',(#764));
#249=EDGE_LOOP('',(#765,#766,#767,#768));
#250=EDGE_LOOP('',(#769,#770,#771,#772));
#251=EDGE_LOOP('',(#773,#774,#775,#776));
#252=EDGE_LOOP('',(#777));
#253=EDGE_LOOP('',(#778));
#254=EDGE_LOOP('',(#779));
#255=EDGE_LOOP('',(#780));
#256=EDGE_LOOP('',(#781));
#257=EDGE_LOOP('',(#782));
#258=EDGE_LOOP('',(#783));
#259=EDGE_LOOP('',(#784));
#260=EDGE_LOOP('',(#785));
#261=EDGE_LOOP('',(#786));
#262=EDGE_LOOP('',(#787));
#263=EDGE_LOOP('',(#788));
#264=EDGE_LOOP('',(#789));
#265=EDGE_LOOP('',(#790));
#266=EDGE_LOOP('',(#791));
#267=EDGE_LOOP('',(#792));
#268=EDGE_LOOP('',(#793));
#269=EDGE_LOOP('',(#794));
#270=EDGE_LOOP('',(#795));
#271=EDGE_LOOP('',(#796));
#272=EDGE_LOOP('',(#797));
#273=EDGE_LOOP('',(#798));
#274=EDGE_LOOP('',(#799));
#275=EDGE_LOOP('',(#800));
#276=LINE('',#1402,#311);
#277=LINE('',#1408,#312);
#278=LINE('',#1414,#313);
#279=LINE('',#1420,#314);
#280=LINE('',#1426,#315);
#281=LINE('',#1432,#316);
#282=LINE('',#1438,#317);
#283=LINE('',#1448,#318);
#284=LINE('',#1451,#319);
#285=LINE('',#1461,#320);
#286=LINE('',#1464,#321);
#287=LINE('',#1474,#322);
#288=LINE('',#1477,#323);
#289=LINE('',#1487,#324);
#290=LINE('',#1490,#325);
#291=LINE('',#1496,#326);
#292=LINE('',#1505,#327);
#293=LINE('',#1511,#328);
#294=LINE('',#1518,#329);
#295=LINE('',#1527,#330);
#296=LINE('',#1533,#331);
#297=LINE('',#1539,#332);
#298=LINE('',#1545,#333);
#299=LINE('',#1551,#334);
#300=LINE('',#1557,#335);
#301=LINE('',#1563,#336);
#302=LINE('',#1573,#337);
#303=LINE('',#1576,#338);
#304=LINE('',#1586,#339);
#305=LINE('',#1589,#340);
#306=LINE('',#1599,#341);
#307=LINE('',#1602,#342);
#308=LINE('',#1612,#343);
#309=LINE('',#1615,#344);
#310=LINE('',#1621,#345);
#311=VECTOR('',#1107,1.2295);
#312=VECTOR('',#1114,1.2295);
#313=VECTOR('',#1121,1.2295);
#314=VECTOR('',#1128,1.2295);
#315=VECTOR('',#1135,1.2295);
#316=VECTOR('',#1142,1.2295);
#317=VECTOR('',#1149,3.);
#318=VECTOR('',#1162,3.);
#319=VECTOR('',#1165,1.55);
#320=VECTOR('',#1178,3.);
#321=VECTOR('',#1181,1.55);
#322=VECTOR('',#1194,3.);
#323=VECTOR('',#1197,1.55);
#324=VECTOR('',#1210,3.);
#325=VECTOR('',#1213,1.55);
#326=VECTOR('',#1220,19.);
#327=VECTOR('',#1233,1.2295);
#328=VECTOR('',#1240,2.);
#329=VECTOR('',#1249,4.);
#330=VECTOR('',#1262,1.2295);
#331=VECTOR('',#1269,1.2295);
#332=VECTOR('',#1276,1.2295);
#333=VECTOR('',#1283,1.2295);
#334=VECTOR('',#1290,1.2295);
#335=VECTOR('',#1297,1.2295);
#336=VECTOR('',#1304,3.);
#337=VECTOR('',#1317,3.);
#338=VECTOR('',#1320,1.55);
#339=VECTOR('',#1333,3.);
#340=VECTOR('',#1336,1.55);
#341=VECTOR('',#1349,3.);
#342=VECTOR('',#1352,1.55);
#343=VECTOR('',#1365,3.);
#344=VECTOR('',#1368,1.55);
#345=VECTOR('',#1375,19.);
#346=CIRCLE('',#971,1.2295);
#347=CIRCLE('',#972,1.2295);
#348=CIRCLE('',#974,1.2295);
#349=CIRCLE('',#975,1.2295);
#350=CIRCLE('',#977,1.2295);
#351=CIRCLE('',#978,1.2295);
#352=CIRCLE('',#980,1.2295);
#353=CIRCLE('',#981,1.2295);
#354=CIRCLE('',#983,1.2295);
#355=CIRCLE('',#984,1.2295);
#356=CIRCLE('',#986,1.2295);
#357=CIRCLE('',#987,1.2295);
#358=CIRCLE('',#989,3.);
#359=CIRCLE('',#990,3.);
#360=CIRCLE('',#992,3.);
#361=CIRCLE('',#993,1.55);
#362=CIRCLE('',#995,3.);
#363=CIRCLE('',#997,1.55);
#364=CIRCLE('',#999,3.);
#365=CIRCLE('',#1000,1.55);
#366=CIRCLE('',#1002,3.);
#367=CIRCLE('',#1004,1.55);
#368=CIRCLE('',#1006,3.);
#369=CIRCLE('',#1007,1.55);
#370=CIRCLE('',#1009,3.);
#371=CIRCLE('',#1011,1.55);
#372=CIRCLE('',#1013,3.);
#373=CIRCLE('',#1014,1.55);
#374=CIRCLE('',#1016,3.);
#375=CIRCLE('',#1018,1.55);
#376=CIRCLE('',#1020,19.);
#377=CIRCLE('',#1021,19.);
#378=CIRCLE('',#1026,1.2295);
#379=CIRCLE('',#1027,1.2295);
#380=CIRCLE('',#1029,2.);
#381=CIRCLE('',#1030,2.);
#382=CIRCLE('',#1033,4.);
#383=CIRCLE('',#1034,4.);
#384=CIRCLE('',#1039,1.2295);
#385=CIRCLE('',#1040,1.2295);
#386=CIRCLE('',#1042,1.2295);
#387=CIRCLE('',#1043,1.2295);
#388=CIRCLE('',#1045,1.2295);
#389=CIRCLE('',#1046,1.2295);
#390=CIRCLE('',#1048,1.2295);
#391=CIRCLE('',#1049,1.2295);
#392=CIRCLE('',#1051,1.2295);
#393=CIRCLE('',#1052,1.2295);
#394=CIRCLE('',#1054,1.2295);
#395=CIRCLE('',#1055,1.2295);
#396=CIRCLE('',#1057,3.);
#397=CIRCLE('',#1058,3.);
#398=CIRCLE('',#1060,3.);
#399=CIRCLE('',#1061,1.55);
#400=CIRCLE('',#1063,3.);
#401=CIRCLE('',#1065,1.55);
#402=CIRCLE('',#1067,3.);
#403=CIRCLE('',#1068,1.55);
#404=CIRCLE('',#1070,3.);
#405=CIRCLE('',#1072,1.55);
#406=CIRCLE('',#1074,3.);
#407=CIRCLE('',#1075,1.55);
#408=CIRCLE('',#1077,3.);
#409=CIRCLE('',#1079,1.55);
#410=CIRCLE('',#1081,3.);
#411=CIRCLE('',#1082,1.55);
#412=CIRCLE('',#1084,3.);
#413=CIRCLE('',#1086,1.55);
#414=CIRCLE('',#1088,19.);
#415=CIRCLE('',#1089,19.);
#416=VERTEX_POINT('',#1399);
#417=VERTEX_POINT('',#1401);
#418=VERTEX_POINT('',#1405);
#419=VERTEX_POINT('',#1407);
#420=VERTEX_POINT('',#1411);
#421=VERTEX_POINT('',#1413);
#422=VERTEX_POINT('',#1417);
#423=VERTEX_POINT('',#1419);
#424=VERTEX_POINT('',#1423);
#425=VERTEX_POINT('',#1425);
#426=VERTEX_POINT('',#1429);
#427=VERTEX_POINT('',#1431);
#428=VERTEX_POINT('',#1435);
#429=VERTEX_POINT('',#1437);
#430=VERTEX_POINT('',#1441);
#431=VERTEX_POINT('',#1443);
#432=VERTEX_POINT('',#1446);
#433=VERTEX_POINT('',#1450);
#434=VERTEX_POINT('',#1454);
#435=VERTEX_POINT('',#1456);
#436=VERTEX_POINT('',#1459);
#437=VERTEX_POINT('',#1463);
#438=VERTEX_POINT('',#1467);
#439=VERTEX_POINT('',#1469);
#440=VERTEX_POINT('',#1472);
#441=VERTEX_POINT('',#1476);
#442=VERTEX_POINT('',#1480);
#443=VERTEX_POINT('',#1482);
#444=VERTEX_POINT('',#1485);
#445=VERTEX_POINT('',#1489);
#446=VERTEX_POINT('',#1493);
#447=VERTEX_POINT('',#1495);
#448=VERTEX_POINT('',#1502);
#449=VERTEX_POINT('',#1504);
#450=VERTEX_POINT('',#1508);
#451=VERTEX_POINT('',#1510);
#452=VERTEX_POINT('',#1515);
#453=VERTEX_POINT('',#1517);
#454=VERTEX_POINT('',#1524);
#455=VERTEX_POINT('',#1526);
#456=VERTEX_POINT('',#1530);
#457=VERTEX_POINT('',#1532);
#458=VERTEX_POINT('',#1536);
#459=VERTEX_POINT('',#1538);
#460=VERTEX_POINT('',#1542);
#461=VERTEX_POINT('',#1544);
#462=VERTEX_POINT('',#1548);
#463=VERTEX_POINT('',#1550);
#464=VERTEX_POINT('',#1554);
#465=VERTEX_POINT('',#1556);
#466=VERTEX_POINT('',#1560);
#467=VERTEX_POINT('',#1562);
#468=VERTEX_POINT('',#1566);
#469=VERTEX_POINT('',#1568);
#470=VERTEX_POINT('',#1571);
#471=VERTEX_POINT('',#1575);
#472=VERTEX_POINT('',#1579);
#473=VERTEX_POINT('',#1581);
#474=VERTEX_POINT('',#1584);
#475=VERTEX_POINT('',#1588);
#476=VERTEX_POINT('',#1592);
#477=VERTEX_POINT('',#1594);
#478=VERTEX_POINT('',#1597);
#479=VERTEX_POINT('',#1601);
#480=VERTEX_POINT('',#1605);
#481=VERTEX_POINT('',#1607);
#482=VERTEX_POINT('',#1610);
#483=VERTEX_POINT('',#1614);
#484=VERTEX_POINT('',#1618);
#485=VERTEX_POINT('',#1620);
#486=EDGE_CURVE('',#416,#416,#346,.T.);
#487=EDGE_CURVE('',#416,#417,#276,.T.);
#488=EDGE_CURVE('',#417,#417,#347,.T.);
#489=EDGE_CURVE('',#418,#418,#348,.T.);
#490=EDGE_CURVE('',#418,#419,#277,.T.);
#491=EDGE_CURVE('',#419,#419,#349,.T.);
#492=EDGE_CURVE('',#420,#420,#350,.T.);
#493=EDGE_CURVE('',#420,#421,#278,.T.);
#494=EDGE_CURVE('',#421,#421,#351,.T.);
#495=EDGE_CURVE('',#422,#422,#352,.T.);
#496=EDGE_CURVE('',#422,#423,#279,.T.);
#497=EDGE_CURVE('',#423,#423,#353,.T.);
#498=EDGE_CURVE('',#424,#424,#354,.T.);
#499=EDGE_CURVE('',#424,#425,#280,.T.);
#500=EDGE_CURVE('',#425,#425,#355,.T.);
#501=EDGE_CURVE('',#426,#426,#356,.T.);
#502=EDGE_CURVE('',#426,#427,#281,.T.);
#503=EDGE_CURVE('',#427,#427,#357,.T.);
#504=EDGE_CURVE('',#428,#428,#358,.T.);
#505=EDGE_CURVE('',#428,#429,#282,.T.);
#506=EDGE_CURVE('',#429,#429,#359,.T.);
#507=EDGE_CURVE('',#430,#430,#360,.T.);
#508=EDGE_CURVE('',#431,#431,#361,.T.);
#509=EDGE_CURVE('',#432,#432,#362,.T.);
#510=EDGE_CURVE('',#432,#430,#283,.T.);
#511=EDGE_CURVE('',#431,#433,#284,.T.);
#512=EDGE_CURVE('',#433,#433,#363,.T.);
#513=EDGE_CURVE('',#434,#434,#364,.T.);
#514=EDGE_CURVE('',#435,#435,#365,.T.);
#515=EDGE_CURVE('',#436,#436,#366,.T.);
#516=EDGE_CURVE('',#436,#434,#285,.T.);
#517=EDGE_CURVE('',#435,#437,#286,.T.);
#518=EDGE_CURVE('',#437,#437,#367,.T.);
#519=EDGE_CURVE('',#438,#438,#368,.T.);
#520=EDGE_CURVE('',#439,#439,#369,.T.);
#521=EDGE_CURVE('',#440,#440,#370,.T.);
#522=EDGE_CURVE('',#440,#438,#287,.T.);
#523=EDGE_CURVE('',#439,#441,#288,.T.);
#524=EDGE_CURVE('',#441,#441,#371,.T.);
#525=EDGE_CURVE('',#442,#442,#372,.T.);
#526=EDGE_CURVE('',#443,#443,#373,.T.);
#527=EDGE_CURVE('',#444,#444,#374,.T.);
#528=EDGE_CURVE('',#444,#442,#289,.T.);
#529=EDGE_CURVE('',#443,#445,#290,.T.);
#530=EDGE_CURVE('',#445,#445,#375,.T.);
#531=EDGE_CURVE('',#446,#446,#376,.T.);
#532=EDGE_CURVE('',#446,#447,#291,.T.);
#533=EDGE_CURVE('',#447,#447,#377,.T.);
#534=EDGE_CURVE('',#448,#448,#378,.T.);
#535=EDGE_CURVE('',#448,#449,#292,.T.);
#536=EDGE_CURVE('',#449,#449,#379,.T.);
#537=EDGE_CURVE('',#450,#450,#380,.T.);
#538=EDGE_CURVE('',#450,#451,#293,.T.);
#539=EDGE_CURVE('',#451,#451,#381,.T.);
#540=EDGE_CURVE('',#452,#452,#382,.T.);
#541=EDGE_CURVE('',#452,#453,#294,.T.);
#542=EDGE_CURVE('',#453,#453,#383,.T.);
#543=EDGE_CURVE('',#454,#454,#384,.T.);
#544=EDGE_CURVE('',#454,#455,#295,.T.);
#545=EDGE_CURVE('',#455,#455,#385,.T.);
#546=EDGE_CURVE('',#456,#456,#386,.T.);
#547=EDGE_CURVE('',#456,#457,#296,.T.);
#548=EDGE_CURVE('',#457,#457,#387,.T.);
#549=EDGE_CURVE('',#458,#458,#388,.T.);
#550=EDGE_CURVE('',#458,#459,#297,.T.);
#551=EDGE_CURVE('',#459,#459,#389,.T.);
#552=EDGE_CURVE('',#460,#460,#390,.T.);
#553=EDGE_CURVE('',#460,#461,#298,.T.);
#554=EDGE_CURVE('',#461,#461,#391,.T.);
#555=EDGE_CURVE('',#462,#462,#392,.T.);
#556=EDGE_CURVE('',#462,#463,#299,.T.);
#557=EDGE_CURVE('',#463,#463,#393,.T.);
#558=EDGE_CURVE('',#464,#464,#394,.T.);
#559=EDGE_CURVE('',#464,#465,#300,.T.);
#560=EDGE_CURVE('',#465,#465,#395,.T.);
#561=EDGE_CURVE('',#466,#466,#396,.T.);
#562=EDGE_CURVE('',#466,#467,#301,.T.);
#563=EDGE_CURVE('',#467,#467,#397,.T.);
#564=EDGE_CURVE('',#468,#468,#398,.T.);
#565=EDGE_CURVE('',#469,#469,#399,.T.);
#566=EDGE_CURVE('',#470,#470,#400,.T.);
#567=EDGE_CURVE('',#470,#468,#302,.T.);
#568=EDGE_CURVE('',#469,#471,#303,.T.);
#569=EDGE_CURVE('',#471,#471,#401,.T.);
#570=EDGE_CURVE('',#472,#472,#402,.T.);
#571=EDGE_CURVE('',#473,#473,#403,.T.);
#572=EDGE_CURVE('',#474,#474,#404,.T.);
#573=EDGE_CURVE('',#474,#472,#304,.T.);
#574=EDGE_CURVE('',#473,#475,#305,.T.);
#575=EDGE_CURVE('',#475,#475,#405,.T.);
#576=EDGE_CURVE('',#476,#476,#406,.T.);
#577=EDGE_CURVE('',#477,#477,#407,.T.);
#578=EDGE_CURVE('',#478,#478,#408,.T.);
#579=EDGE_CURVE('',#478,#476,#306,.T.);
#580=EDGE_CURVE('',#477,#479,#307,.T.);
#581=EDGE_CURVE('',#479,#479,#409,.T.);
#582=EDGE_CURVE('',#480,#480,#410,.T.);
#583=EDGE_CURVE('',#481,#481,#411,.T.);
#584=EDGE_CURVE('',#482,#482,#412,.T.);
#585=EDGE_CURVE('',#482,#480,#308,.T.);
#586=EDGE_CURVE('',#481,#483,#309,.T.);
#587=EDGE_CURVE('',#483,#483,#413,.T.);
#588=EDGE_CURVE('',#484,#484,#414,.T.);
#589=EDGE_CURVE('',#484,#485,#310,.T.);
#590=EDGE_CURVE('',#485,#485,#415,.T.);
#591=ORIENTED_EDGE('',*,*,#486,.F.);
#592=ORIENTED_EDGE('',*,*,#487,.T.);
#593=ORIENTED_EDGE('',*,*,#488,.F.);
#594=ORIENTED_EDGE('',*,*,#487,.F.);
#595=ORIENTED_EDGE('',*,*,#489,.F.);
#596=ORIENTED_EDGE('',*,*,#490,.T.);
#597=ORIENTED_EDGE('',*,*,#491,.F.);
#598=ORIENTED_EDGE('',*,*,#490,.F.);
#599=ORIENTED_EDGE('',*,*,#492,.F.);
#600=ORIENTED_EDGE('',*,*,#493,.T.);
#601=ORIENTED_EDGE('',*,*,#494,.F.);
#602=ORIENTED_EDGE('',*,*,#493,.F.);
#603=ORIENTED_EDGE('',*,*,#495,.F.);
#604=ORIENTED_EDGE('',*,*,#496,.T.);
#605=ORIENTED_EDGE('',*,*,#497,.F.);
#606=ORIENTED_EDGE('',*,*,#496,.F.);
#607=ORIENTED_EDGE('',*,*,#498,.F.);
#608=ORIENTED_EDGE('',*,*,#499,.T.);
#609=ORIENTED_EDGE('',*,*,#500,.F.);
#610=ORIENTED_EDGE('',*,*,#499,.F.);
#611=ORIENTED_EDGE('',*,*,#501,.F.);
#612=ORIENTED_EDGE('',*,*,#502,.T.);
#613=ORIENTED_EDGE('',*,*,#503,.F.);
#614=ORIENTED_EDGE('',*,*,#502,.F.);
#615=ORIENTED_EDGE('',*,*,#504,.F.);
#616=ORIENTED_EDGE('',*,*,#505,.T.);
#617=ORIENTED_EDGE('',*,*,#506,.F.);
#618=ORIENTED_EDGE('',*,*,#505,.F.);
#619=ORIENTED_EDGE('',*,*,#507,.T.);
#620=ORIENTED_EDGE('',*,*,#508,.F.);
#621=ORIENTED_EDGE('',*,*,#509,.F.);
#622=ORIENTED_EDGE('',*,*,#510,.T.);
#623=ORIENTED_EDGE('',*,*,#507,.F.);
#624=ORIENTED_EDGE('',*,*,#510,.F.);
#625=ORIENTED_EDGE('',*,*,#508,.T.);
#626=ORIENTED_EDGE('',*,*,#511,.T.);
#627=ORIENTED_EDGE('',*,*,#512,.F.);
#628=ORIENTED_EDGE('',*,*,#511,.F.);
#629=ORIENTED_EDGE('',*,*,#513,.T.);
#630=ORIENTED_EDGE('',*,*,#514,.F.);
#631=ORIENTED_EDGE('',*,*,#515,.F.);
#632=ORIENTED_EDGE('',*,*,#516,.T.);
#633=ORIENTED_EDGE('',*,*,#513,.F.);
#634=ORIENTED_EDGE('',*,*,#516,.F.);
#635=ORIENTED_EDGE('',*,*,#514,.T.);
#636=ORIENTED_EDGE('',*,*,#517,.T.);
#637=ORIENTED_EDGE('',*,*,#518,.F.);
#638=ORIENTED_EDGE('',*,*,#517,.F.);
#639=ORIENTED_EDGE('',*,*,#519,.T.);
#640=ORIENTED_EDGE('',*,*,#520,.F.);
#641=ORIENTED_EDGE('',*,*,#521,.F.);
#642=ORIENTED_EDGE('',*,*,#522,.T.);
#643=ORIENTED_EDGE('',*,*,#519,.F.);
#644=ORIENTED_EDGE('',*,*,#522,.F.);
#645=ORIENTED_EDGE('',*,*,#520,.T.);
#646=ORIENTED_EDGE('',*,*,#523,.T.);
#647=ORIENTED_EDGE('',*,*,#524,.F.);
#648=ORIENTED_EDGE('',*,*,#523,.F.);
#649=ORIENTED_EDGE('',*,*,#525,.T.);
#650=ORIENTED_EDGE('',*,*,#526,.F.);
#651=ORIENTED_EDGE('',*,*,#527,.F.);
#652=ORIENTED_EDGE('',*,*,#528,.T.);
#653=ORIENTED_EDGE('',*,*,#525,.F.);
#654=ORIENTED_EDGE('',*,*,#528,.F.);
#655=ORIENTED_EDGE('',*,*,#526,.T.);
#656=ORIENTED_EDGE('',*,*,#529,.T.);
#657=ORIENTED_EDGE('',*,*,#530,.F.);
#658=ORIENTED_EDGE('',*,*,#529,.F.);
#659=ORIENTED_EDGE('',*,*,#531,.F.);
#660=ORIENTED_EDGE('',*,*,#532,.T.);
#661=ORIENTED_EDGE('',*,*,#533,.T.);
#662=ORIENTED_EDGE('',*,*,#532,.F.);
#663=ORIENTED_EDGE('',*,*,#531,.T.);
#664=ORIENTED_EDGE('',*,*,#486,.T.);
#665=ORIENTED_EDGE('',*,*,#489,.T.);
#666=ORIENTED_EDGE('',*,*,#492,.T.);
#667=ORIENTED_EDGE('',*,*,#495,.T.);
#668=ORIENTED_EDGE('',*,*,#498,.T.);
#669=ORIENTED_EDGE('',*,*,#501,.T.);
#670=ORIENTED_EDGE('',*,*,#504,.T.);
#671=ORIENTED_EDGE('',*,*,#509,.T.);
#672=ORIENTED_EDGE('',*,*,#515,.T.);
#673=ORIENTED_EDGE('',*,*,#521,.T.);
#674=ORIENTED_EDGE('',*,*,#527,.T.);
#675=ORIENTED_EDGE('',*,*,#533,.F.);
#676=ORIENTED_EDGE('',*,*,#488,.T.);
#677=ORIENTED_EDGE('',*,*,#491,.T.);
#678=ORIENTED_EDGE('',*,*,#494,.T.);
#679=ORIENTED_EDGE('',*,*,#497,.T.);
#680=ORIENTED_EDGE('',*,*,#500,.T.);
#681=ORIENTED_EDGE('',*,*,#503,.T.);
#682=ORIENTED_EDGE('',*,*,#506,.T.);
#683=ORIENTED_EDGE('',*,*,#512,.T.);
#684=ORIENTED_EDGE('',*,*,#518,.T.);
#685=ORIENTED_EDGE('',*,*,#524,.T.);
#686=ORIENTED_EDGE('',*,*,#530,.T.);
#687=ORIENTED_EDGE('',*,*,#534,.F.);
#688=ORIENTED_EDGE('',*,*,#535,.T.);
#689=ORIENTED_EDGE('',*,*,#536,.F.);
#690=ORIENTED_EDGE('',*,*,#535,.F.);
#691=ORIENTED_EDGE('',*,*,#537,.F.);
#692=ORIENTED_EDGE('',*,*,#538,.T.);
#693=ORIENTED_EDGE('',*,*,#539,.F.);
#694=ORIENTED_EDGE('',*,*,#538,.F.);
#695=ORIENTED_EDGE('',*,*,#537,.T.);
#696=ORIENTED_EDGE('',*,*,#534,.T.);
#697=ORIENTED_EDGE('',*,*,#540,.F.);
#698=ORIENTED_EDGE('',*,*,#541,.T.);
#699=ORIENTED_EDGE('',*,*,#542,.T.);
#700=ORIENTED_EDGE('',*,*,#541,.F.);
#701=ORIENTED_EDGE('',*,*,#540,.T.);
#702=ORIENTED_EDGE('',*,*,#539,.T.);
#703=ORIENTED_EDGE('',*,*,#542,.F.);
#704=ORIENTED_EDGE('',*,*,#536,.T.);
#705=ORIENTED_EDGE('',*,*,#543,.F.);
#706=ORIENTED_EDGE('',*,*,#544,.T.);
#707=ORIENTED_EDGE('',*,*,#545,.F.);
#708=ORIENTED_EDGE('',*,*,#544,.F.);
#709=ORIENTED_EDGE('',*,*,#546,.F.);
#710=ORIENTED_EDGE('',*,*,#547,.T.);
#711=ORIENTED_EDGE('',*,*,#548,.F.);
#712=ORIENTED_EDGE('',*,*,#547,.F.);
#713=ORIENTED_EDGE('',*,*,#549,.F.);
#714=ORIENTED_EDGE('',*,*,#550,.T.);
#715=ORIENTED_EDGE('',*,*,#551,.F.);
#716=ORIENTED_EDGE('',*,*,#550,.F.);
#717=ORIENTED_EDGE('',*,*,#552,.F.);
#718=ORIENTED_EDGE('',*,*,#553,.T.);
#719=ORIENTED_EDGE('',*,*,#554,.F.);
#720=ORIENTED_EDGE('',*,*,#553,.F.);
#721=ORIENTED_EDGE('',*,*,#555,.F.);
#722=ORIENTED_EDGE('',*,*,#556,.T.);
#723=ORIENTED_EDGE('',*,*,#557,.F.);
#724=ORIENTED_EDGE('',*,*,#556,.F.);
#725=ORIENTED_EDGE('',*,*,#558,.F.);
#726=ORIENTED_EDGE('',*,*,#559,.T.);
#727=ORIENTED_EDGE('',*,*,#560,.F.);
#728=ORIENTED_EDGE('',*,*,#559,.F.);
#729=ORIENTED_EDGE('',*,*,#561,.F.);
#730=ORIENTED_EDGE('',*,*,#562,.T.);
#731=ORIENTED_EDGE('',*,*,#563,.F.);
#732=ORIENTED_EDGE('',*,*,#562,.F.);
#733=ORIENTED_EDGE('',*,*,#564,.T.);
#734=ORIENTED_EDGE('',*,*,#565,.F.);
#735=ORIENTED_EDGE('',*,*,#566,.F.);
#736=ORIENTED_EDGE('',*,*,#567,.T.);
#737=ORIENTED_EDGE('',*,*,#564,.F.);
#738=ORIENTED_EDGE('',*,*,#567,.F.);
#739=ORIENTED_EDGE('',*,*,#565,.T.);
#740=ORIENTED_EDGE('',*,*,#568,.T.);
#741=ORIENTED_EDGE('',*,*,#569,.F.);
#742=ORIENTED_EDGE('',*,*,#568,.F.);
#743=ORIENTED_EDGE('',*,*,#570,.T.);
#744=ORIENTED_EDGE('',*,*,#571,.F.);
#745=ORIENTED_EDGE('',*,*,#572,.F.);
#746=ORIENTED_EDGE('',*,*,#573,.T.);
#747=ORIENTED_EDGE('',*,*,#570,.F.);
#748=ORIENTED_EDGE('',*,*,#573,.F.);
#749=ORIENTED_EDGE('',*,*,#571,.T.);
#750=ORIENTED_EDGE('',*,*,#574,.T.);
#751=ORIENTED_EDGE('',*,*,#575,.F.);
#752=ORIENTED_EDGE('',*,*,#574,.F.);
#753=ORIENTED_EDGE('',*,*,#576,.T.);
#754=ORIENTED_EDGE('',*,*,#577,.F.);
#755=ORIENTED_EDGE('',*,*,#578,.F.);
#756=ORIENTED_EDGE('',*,*,#579,.T.);
#757=ORIENTED_EDGE('',*,*,#576,.F.);
#758=ORIENTED_EDGE('',*,*,#579,.F.);
#759=ORIENTED_EDGE('',*,*,#577,.T.);
#760=ORIENTED_EDGE('',*,*,#580,.T.);
#761=ORIENTED_EDGE('',*,*,#581,.F.);
#762=ORIENTED_EDGE('',*,*,#580,.F.);
#763=ORIENTED_EDGE('',*,*,#582,.T.);
#764=ORIENTED_EDGE('',*,*,#583,.F.);
#765=ORIENTED_EDGE('',*,*,#584,.F.);
#766=ORIENTED_EDGE('',*,*,#585,.T.);
#767=ORIENTED_EDGE('',*,*,#582,.F.);
#768=ORIENTED_EDGE('',*,*,#585,.F.);
#769=ORIENTED_EDGE('',*,*,#583,.T.);
#770=ORIENTED_EDGE('',*,*,#586,.T.);
#771=ORIENTED_EDGE('',*,*,#587,.F.);
#772=ORIENTED_EDGE('',*,*,#586,.F.);
#773=ORIENTED_EDGE('',*,*,#588,.F.);
#774=ORIENTED_EDGE('',*,*,#589,.T.);
#775=ORIENTED_EDGE('',*,*,#590,.T.);
#776=ORIENTED_EDGE('',*,*,#589,.F.);
#777=ORIENTED_EDGE('',*,*,#588,.T.);
#778=ORIENTED_EDGE('',*,*,#543,.T.);
#779=ORIENTED_EDGE('',*,*,#546,.T.);
#780=ORIENTED_EDGE('',*,*,#549,.T.);
#781=ORIENTED_EDGE('',*,*,#552,.T.);
#782=ORIENTED_EDGE('',*,*,#555,.T.);
#783=ORIENTED_EDGE('',*,*,#558,.T.);
#784=ORIENTED_EDGE('',*,*,#561,.T.);
#785=ORIENTED_EDGE('',*,*,#566,.T.);
#786=ORIENTED_EDGE('',*,*,#572,.T.);
#787=ORIENTED_EDGE('',*,*,#578,.T.);
#788=ORIENTED_EDGE('',*,*,#584,.T.);
#789=ORIENTED_EDGE('',*,*,#590,.F.);
#790=ORIENTED_EDGE('',*,*,#545,.T.);
#791=ORIENTED_EDGE('',*,*,#548,.T.);
#792=ORIENTED_EDGE('',*,*,#551,.T.);
#793=ORIENTED_EDGE('',*,*,#554,.T.);
#794=ORIENTED_EDGE('',*,*,#557,.T.);
#795=ORIENTED_EDGE('',*,*,#560,.T.);
#796=ORIENTED_EDGE('',*,*,#563,.T.);
#797=ORIENTED_EDGE('',*,*,#569,.T.);
#798=ORIENTED_EDGE('',*,*,#575,.T.);
#799=ORIENTED_EDGE('',*,*,#581,.T.);
#800=ORIENTED_EDGE('',*,*,#587,.T.);
#801=CYLINDRICAL_SURFACE('',#970,1.2295);
#802=CYLINDRICAL_SURFACE('',#973,1.2295);
#803=CYLINDRICAL_SURFACE('',#976,1.2295);
#804=CYLINDRICAL_SURFACE('',#979,1.2295);
#805=CYLINDRICAL_SURFACE('',#982,1.2295);
#806=CYLINDRICAL_SURFACE('',#985,1.2295);
#807=CYLINDRICAL_SURFACE('',#988,3.);
#808=CYLINDRICAL_SURFACE('',#994,3.);
#809=CYLINDRICAL_SURFACE('',#996,1.55);
#810=CYLINDRICAL_SURFACE('',#1001,3.);
#811=CYLINDRICAL_SURFACE('',#1003,1.55);
#812=CYLINDRICAL_SURFACE('',#1008,3.);
#813=CYLINDRICAL_SURFACE('',#1010,1.55);
#814=CYLINDRICAL_SURFACE('',#1015,3.);
#815=CYLINDRICAL_SURFACE('',#1017,1.55);
#816=CYLINDRICAL_SURFACE('',#1019,19.);
#817=CYLINDRICAL_SURFACE('',#1025,1.2295);
#818=CYLINDRICAL_SURFACE('',#1028,2.);
#819=CYLINDRICAL_SURFACE('',#1032,4.);
#820=CYLINDRICAL_SURFACE('',#1038,1.2295);
#821=CYLINDRICAL_SURFACE('',#1041,1.2295);
#822=CYLINDRICAL_SURFACE('',#1044,1.2295);
#823=CYLINDRICAL_SURFACE('',#1047,1.2295);
#824=CYLINDRICAL_SURFACE('',#1050,1.2295);
#825=CYLINDRICAL_SURFACE('',#1053,1.2295);
#826=CYLINDRICAL_SURFACE('',#1056,3.);
#827=CYLINDRICAL_SURFACE('',#1062,3.);
#828=CYLINDRICAL_SURFACE('',#1064,1.55);
#829=CYLINDRICAL_SURFACE('',#1069,3.);
#830=CYLINDRICAL_SURFACE('',#1071,1.55);
#831=CYLINDRICAL_SURFACE('',#1076,3.);
#832=CYLINDRICAL_SURFACE('',#1078,1.55);
#833=CYLINDRICAL_SURFACE('',#1083,3.);
#834=CYLINDRICAL_SURFACE('',#1085,1.55);
#835=CYLINDRICAL_SURFACE('',#1087,19.);
#836=ADVANCED_FACE('',(#121),#801,.F.);
#837=ADVANCED_FACE('',(#122),#802,.F.);
#838=ADVANCED_FACE('',(#123),#803,.F.);
#839=ADVANCED_FACE('',(#124),#804,.F.);
#840=ADVANCED_FACE('',(#125),#805,.F.);
#841=ADVANCED_FACE('',(#126),#806,.F.);
#842=ADVANCED_FACE('',(#127),#807,.F.);
#843=ADVANCED_FACE('',(#128,#51),#106,.T.);
#844=ADVANCED_FACE('',(#129),#808,.F.);
#845=ADVANCED_FACE('',(#130),#809,.F.);
#846=ADVANCED_FACE('',(#131,#52),#107,.T.);
#847=ADVANCED_FACE('',(#132),#810,.F.);
#848=ADVANCED_FACE('',(#133),#811,.F.);
#849=ADVANCED_FACE('',(#134,#53),#108,.T.);
#850=ADVANCED_FACE('',(#135),#812,.F.);
#851=ADVANCED_FACE('',(#136),#813,.F.);
#852=ADVANCED_FACE('',(#137,#54),#109,.T.);
#853=ADVANCED_FACE('',(#138),#814,.F.);
#854=ADVANCED_FACE('',(#139),#815,.F.);
#855=ADVANCED_FACE('',(#140),#816,.T.);
#856=ADVANCED_FACE('',(#141,#55,#56,#57,#58,#59,#60,#61,#62,#63,#64,#65),
#110,.T.);
#857=ADVANCED_FACE('',(#142,#66,#67,#68,#69,#70,#71,#72,#73,#74,#75,#76),
#111,.F.);
#858=ADVANCED_FACE('',(#143),#817,.F.);
#859=ADVANCED_FACE('',(#144),#818,.T.);
#860=ADVANCED_FACE('',(#145,#77),#112,.T.);
#861=ADVANCED_FACE('',(#146),#819,.T.);
#862=ADVANCED_FACE('',(#147,#78),#113,.T.);
#863=ADVANCED_FACE('',(#148,#79),#114,.F.);
#864=ADVANCED_FACE('',(#149),#820,.F.);
#865=ADVANCED_FACE('',(#150),#821,.F.);
#866=ADVANCED_FACE('',(#151),#822,.F.);
#867=ADVANCED_FACE('',(#152),#823,.F.);
#868=ADVANCED_FACE('',(#153),#824,.F.);
#869=ADVANCED_FACE('',(#154),#825,.F.);
#870=ADVANCED_FACE('',(#155),#826,.F.);
#871=ADVANCED_FACE('',(#156,#80),#115,.T.);
#872=ADVANCED_FACE('',(#157),#827,.F.);
#873=ADVANCED_FACE('',(#158),#828,.F.);
#874=ADVANCED_FACE('',(#159,#81),#116,.T.);
#875=ADVANCED_FACE('',(#160),#829,.F.);
#876=ADVANCED_FACE('',(#161),#830,.F.);
#877=ADVANCED_FACE('',(#162,#82),#117,.T.);
#878=ADVANCED_FACE('',(#163),#831,.F.);
#879=ADVANCED_FACE('',(#164),#832,.F.);
#880=ADVANCED_FACE('',(#165,#83),#118,.T.);
#881=ADVANCED_FACE('',(#166),#833,.F.);
#882=ADVANCED_FACE('',(#167),#834,.F.);
#883=ADVANCED_FACE('',(#168),#835,.T.);
#884=ADVANCED_FACE('',(#169,#84,#85,#86,#87,#88,#89,#90,#91,#92,#93,#94),
#119,.T.);
#885=ADVANCED_FACE('',(#170,#95,#96,#97,#98,#99,#100,#101,#102,#103,#104,
#105),#120,.F.);
#886=CLOSED_SHELL('',(#836,#837,#838,#839,#840,#841,#842,#843,#844,#845,
#846,#847,#848,#849,#850,#851,#852,#853,#854,#855,#856,#857));
#887=CLOSED_SHELL('',(#858,#859,#860,#861,#862,#863));
#888=CLOSED_SHELL('',(#864,#865,#866,#867,#868,#869,#870,#871,#872,#873,
#874,#875,#876,#877,#878,#879,#880,#881,#882,#883,#884,#885));
#889=DERIVED_UNIT_ELEMENT(#896,1.);
#890=DERIVED_UNIT_ELEMENT(#1643,-3.);
#891=DERIVED_UNIT_ELEMENT(#896,1.);
#892=DERIVED_UNIT_ELEMENT(#1643,-3.);
#893=DERIVED_UNIT_ELEMENT(#896,1.);
#894=DERIVED_UNIT_ELEMENT(#1643,-3.);
#895=DIMENSIONAL_EXPONENTS(0.,1.,0.,0.,0.,0.,0.);
#896=(
CONVERSION_BASED_UNIT('gram',#898)
MASS_UNIT()
NAMED_UNIT(#895)
);
#897=(
MASS_UNIT()
NAMED_UNIT(*)
SI_UNIT(.KILO.,.GRAM.)
);
#898=MASS_MEASURE_WITH_UNIT(MASS_MEASURE(0.001),#897);
#899=DERIVED_UNIT((#889,#890));
#900=DERIVED_UNIT((#891,#892));
#901=DERIVED_UNIT((#893,#894));
#902=MEASURE_REPRESENTATION_ITEM('density measure',
POSITIVE_RATIO_MEASURE(2.7),#899);
#903=MEASURE_REPRESENTATION_ITEM('density measure',
POSITIVE_RATIO_MEASURE(1.),#900);
#904=MEASURE_REPRESENTATION_ITEM('density measure',
POSITIVE_RATIO_MEASURE(2.7),#901);
#905=PROPERTY_DEFINITION_REPRESENTATION(#920,#911);
#906=PROPERTY_DEFINITION_REPRESENTATION(#921,#912);
#907=PROPERTY_DEFINITION_REPRESENTATION(#922,#913);
#908=PROPERTY_DEFINITION_REPRESENTATION(#923,#914);
#909=PROPERTY_DEFINITION_REPRESENTATION(#924,#915);
#910=PROPERTY_DEFINITION_REPRESENTATION(#925,#916);
#911=REPRESENTATION('material name',(#917),#1638);
#912=REPRESENTATION('density',(#902),#1638);
#913=REPRESENTATION('material name',(#918),#1639);
#914=REPRESENTATION('density',(#903),#1639);
#915=REPRESENTATION('material name',(#919),#1640);
#916=REPRESENTATION('density',(#904),#1640);
#917=DESCRIPTIVE_REPRESENTATION_ITEM('\X2\30A230EB30DF30CB30A630E0\X0\ 
6061','\X2\30A230EB30DF30CB30A630E0\X0\ 6061');
#918=DESCRIPTIVE_REPRESENTATION_ITEM('\X2\4E00822C\X0\','\X2\4E00822C\X0\');
#919=DESCRIPTIVE_REPRESENTATION_ITEM('\X2\30A230EB30DF30CB30A630E0\X0\ 
6061','\X2\30A230EB30DF30CB30A630E0\X0\ 6061');
#920=PROPERTY_DEFINITION('material property','material name',#1667);
#921=PROPERTY_DEFINITION('material property','density of part',#1667);
#922=PROPERTY_DEFINITION('material property','material name',#1668);
#923=PROPERTY_DEFINITION('material property','density of part',#1668);
#924=PROPERTY_DEFINITION('material property','material name',#1669);
#925=PROPERTY_DEFINITION('material property','density of part',#1669);
#926=PRESENTATION_STYLE_ASSIGNMENT((#928));
#927=PRESENTATION_STYLE_ASSIGNMENT((#929));
#928=SURFACE_STYLE_USAGE(.BOTH.,#934);
#929=SURFACE_STYLE_USAGE(.BOTH.,#935);
#930=SURFACE_STYLE_RENDERING_WITH_PROPERTIES($,#942,(#932));
#931=SURFACE_STYLE_RENDERING_WITH_PROPERTIES($,#943,(#933));
#932=SURFACE_STYLE_TRANSPARENT(0.);
#933=SURFACE_STYLE_TRANSPARENT(0.);
#934=SURFACE_SIDE_STYLE('',(#936,#930));
#935=SURFACE_SIDE_STYLE('',(#937,#931));
#936=SURFACE_STYLE_FILL_AREA(#938);
#937=SURFACE_STYLE_FILL_AREA(#939);
#938=FILL_AREA_STYLE('',(#940));
#939=FILL_AREA_STYLE('',(#941));
#940=FILL_AREA_STYLE_COLOUR('',#942);
#941=FILL_AREA_STYLE_COLOUR('',#943);
#942=COLOUR_RGB('',0.996078431372549,0.996078431372549,1.);
#943=COLOUR_RGB('',0.749019607843137,0.749019607843137,0.749019607843137);
#944=DATE_TIME_ROLE('creation_date');
#945=DATE_TIME_ROLE('creation_date');
#946=DATE_TIME_ROLE('creation_date');
#947=DATE_TIME_ROLE('creation_date');
#948=APPLIED_DATE_AND_TIME_ASSIGNMENT(#952,#944,(#1666));
#949=APPLIED_DATE_AND_TIME_ASSIGNMENT(#953,#945,(#1667));
#950=APPLIED_DATE_AND_TIME_ASSIGNMENT(#954,#946,(#1668));
#951=APPLIED_DATE_AND_TIME_ASSIGNMENT(#955,#947,(#1669));
#952=DATE_AND_TIME(#956,#960);
#953=DATE_AND_TIME(#957,#961);
#954=DATE_AND_TIME(#958,#962);
#955=DATE_AND_TIME(#959,#963);
#956=CALENDAR_DATE(2025,27,4);
#957=CALENDAR_DATE(2023,10,11);
#958=CALENDAR_DATE(2023,10,11);
#959=CALENDAR_DATE(2023,10,11);
#960=LOCAL_TIME(0,0,0.,#964);
#961=LOCAL_TIME(0,0,0.,#965);
#962=LOCAL_TIME(0,0,0.,#966);
#963=LOCAL_TIME(0,0,0.,#967);
#964=COORDINATED_UNIVERSAL_TIME_OFFSET(0,0,.BEHIND.);
#965=COORDINATED_UNIVERSAL_TIME_OFFSET(0,0,.BEHIND.);
#966=COORDINATED_UNIVERSAL_TIME_OFFSET(0,0,.BEHIND.);
#967=COORDINATED_UNIVERSAL_TIME_OFFSET(0,0,.BEHIND.);
#968=AXIS2_PLACEMENT_3D('',#1396,#1099,#1100);
#969=AXIS2_PLACEMENT_3D('',#1397,#1101,#1102);
#970=AXIS2_PLACEMENT_3D('',#1398,#1103,#1104);
#971=AXIS2_PLACEMENT_3D('',#1400,#1105,#1106);
#972=AXIS2_PLACEMENT_3D('',#1403,#1108,#1109);
#973=AXIS2_PLACEMENT_3D('',#1404,#1110,#1111);
#974=AXIS2_PLACEMENT_3D('',#1406,#1112,#1113);
#975=AXIS2_PLACEMENT_3D('',#1409,#1115,#1116);
#976=AXIS2_PLACEMENT_3D('',#1410,#1117,#1118);
#977=AXIS2_PLACEMENT_3D('',#1412,#1119,#1120);
#978=AXIS2_PLACEMENT_3D('',#1415,#1122,#1123);
#979=AXIS2_PLACEMENT_3D('',#1416,#1124,#1125);
#980=AXIS2_PLACEMENT_3D('',#1418,#1126,#1127);
#981=AXIS2_PLACEMENT_3D('',#1421,#1129,#1130);
#982=AXIS2_PLACEMENT_3D('',#1422,#1131,#1132);
#983=AXIS2_PLACEMENT_3D('',#1424,#1133,#1134);
#984=AXIS2_PLACEMENT_3D('',#1427,#1136,#1137);
#985=AXIS2_PLACEMENT_3D('',#1428,#1138,#1139);
#986=AXIS2_PLACEMENT_3D('',#1430,#1140,#1141);
#987=AXIS2_PLACEMENT_3D('',#1433,#1143,#1144);
#988=AXIS2_PLACEMENT_3D('',#1434,#1145,#1146);
#989=AXIS2_PLACEMENT_3D('',#1436,#1147,#1148);
#990=AXIS2_PLACEMENT_3D('',#1439,#1150,#1151);
#991=AXIS2_PLACEMENT_3D('',#1440,#1152,#1153);
#992=AXIS2_PLACEMENT_3D('',#1442,#1154,#1155);
#993=AXIS2_PLACEMENT_3D('',#1444,#1156,#1157);
#994=AXIS2_PLACEMENT_3D('',#1445,#1158,#1159);
#995=AXIS2_PLACEMENT_3D('',#1447,#1160,#1161);
#996=AXIS2_PLACEMENT_3D('',#1449,#1163,#1164);
#997=AXIS2_PLACEMENT_3D('',#1452,#1166,#1167);
#998=AXIS2_PLACEMENT_3D('',#1453,#1168,#1169);
#999=AXIS2_PLACEMENT_3D('',#1455,#1170,#1171);
#1000=AXIS2_PLACEMENT_3D('',#1457,#1172,#1173);
#1001=AXIS2_PLACEMENT_3D('',#1458,#1174,#1175);
#1002=AXIS2_PLACEMENT_3D('',#1460,#1176,#1177);
#1003=AXIS2_PLACEMENT_3D('',#1462,#1179,#1180);
#1004=AXIS2_PLACEMENT_3D('',#1465,#1182,#1183);
#1005=AXIS2_PLACEMENT_3D('',#1466,#1184,#1185);
#1006=AXIS2_PLACEMENT_3D('',#1468,#1186,#1187);
#1007=AXIS2_PLACEMENT_3D('',#1470,#1188,#1189);
#1008=AXIS2_PLACEMENT_3D('',#1471,#1190,#1191);
#1009=AXIS2_PLACEMENT_3D('',#1473,#1192,#1193);
#1010=AXIS2_PLACEMENT_3D('',#1475,#1195,#1196);
#1011=AXIS2_PLACEMENT_3D('',#1478,#1198,#1199);
#1012=AXIS2_PLACEMENT_3D('',#1479,#1200,#1201);
#1013=AXIS2_PLACEMENT_3D('',#1481,#1202,#1203);
#1014=AXIS2_PLACEMENT_3D('',#1483,#1204,#1205);
#1015=AXIS2_PLACEMENT_3D('',#1484,#1206,#1207);
#1016=AXIS2_PLACEMENT_3D('',#1486,#1208,#1209);
#1017=AXIS2_PLACEMENT_3D('',#1488,#1211,#1212);
#1018=AXIS2_PLACEMENT_3D('',#1491,#1214,#1215);
#1019=AXIS2_PLACEMENT_3D('',#1492,#1216,#1217);
#1020=AXIS2_PLACEMENT_3D('',#1494,#1218,#1219);
#1021=AXIS2_PLACEMENT_3D('',#1497,#1221,#1222);
#1022=AXIS2_PLACEMENT_3D('',#1498,#1223,#1224);
#1023=AXIS2_PLACEMENT_3D('',#1499,#1225,#1226);
#1024=AXIS2_PLACEMENT_3D('',#1500,#1227,#1228);
#1025=AXIS2_PLACEMENT_3D('',#1501,#1229,#1230);
#1026=AXIS2_PLACEMENT_3D('',#1503,#1231,#1232);
#1027=AXIS2_PLACEMENT_3D('',#1506,#1234,#1235);
#1028=AXIS2_PLACEMENT_3D('',#1507,#1236,#1237);
#1029=AXIS2_PLACEMENT_3D('',#1509,#1238,#1239);
#1030=AXIS2_PLACEMENT_3D('',#1512,#1241,#1242);
#1031=AXIS2_PLACEMENT_3D('',#1513,#1243,#1244);
#1032=AXIS2_PLACEMENT_3D('',#1514,#1245,#1246);
#1033=AXIS2_PLACEMENT_3D('',#1516,#1247,#1248);
#1034=AXIS2_PLACEMENT_3D('',#1519,#1250,#1251);
#1035=AXIS2_PLACEMENT_3D('',#1520,#1252,#1253);
#1036=AXIS2_PLACEMENT_3D('',#1521,#1254,#1255);
#1037=AXIS2_PLACEMENT_3D('',#1522,#1256,#1257);
#1038=AXIS2_PLACEMENT_3D('',#1523,#1258,#1259);
#1039=AXIS2_PLACEMENT_3D('',#1525,#1260,#1261);
#1040=AXIS2_PLACEMENT_3D('',#1528,#1263,#1264);
#1041=AXIS2_PLACEMENT_3D('',#1529,#1265,#1266);
#1042=AXIS2_PLACEMENT_3D('',#1531,#1267,#1268);
#1043=AXIS2_PLACEMENT_3D('',#1534,#1270,#1271);
#1044=AXIS2_PLACEMENT_3D('',#1535,#1272,#1273);
#1045=AXIS2_PLACEMENT_3D('',#1537,#1274,#1275);
#1046=AXIS2_PLACEMENT_3D('',#1540,#1277,#1278);
#1047=AXIS2_PLACEMENT_3D('',#1541,#1279,#1280);
#1048=AXIS2_PLACEMENT_3D('',#1543,#1281,#1282);
#1049=AXIS2_PLACEMENT_3D('',#1546,#1284,#1285);
#1050=AXIS2_PLACEMENT_3D('',#1547,#1286,#1287);
#1051=AXIS2_PLACEMENT_3D('',#1549,#1288,#1289);
#1052=AXIS2_PLACEMENT_3D('',#1552,#1291,#1292);
#1053=AXIS2_PLACEMENT_3D('',#1553,#1293,#1294);
#1054=AXIS2_PLACEMENT_3D('',#1555,#1295,#1296);
#1055=AXIS2_PLACEMENT_3D('',#1558,#1298,#1299);
#1056=AXIS2_PLACEMENT_3D('',#1559,#1300,#1301);
#1057=AXIS2_PLACEMENT_3D('',#1561,#1302,#1303);
#1058=AXIS2_PLACEMENT_3D('',#1564,#1305,#1306);
#1059=AXIS2_PLACEMENT_3D('',#1565,#1307,#1308);
#1060=AXIS2_PLACEMENT_3D('',#1567,#1309,#1310);
#1061=AXIS2_PLACEMENT_3D('',#1569,#1311,#1312);
#1062=AXIS2_PLACEMENT_3D('',#1570,#1313,#1314);
#1063=AXIS2_PLACEMENT_3D('',#1572,#1315,#1316);
#1064=AXIS2_PLACEMENT_3D('',#1574,#1318,#1319);
#1065=AXIS2_PLACEMENT_3D('',#1577,#1321,#1322);
#1066=AXIS2_PLACEMENT_3D('',#1578,#1323,#1324);
#1067=AXIS2_PLACEMENT_3D('',#1580,#1325,#1326);
#1068=AXIS2_PLACEMENT_3D('',#1582,#1327,#1328);
#1069=AXIS2_PLACEMENT_3D('',#1583,#1329,#1330);
#1070=AXIS2_PLACEMENT_3D('',#1585,#1331,#1332);
#1071=AXIS2_PLACEMENT_3D('',#1587,#1334,#1335);
#1072=AXIS2_PLACEMENT_3D('',#1590,#1337,#1338);
#1073=AXIS2_PLACEMENT_3D('',#1591,#1339,#1340);
#1074=AXIS2_PLACEMENT_3D('',#1593,#1341,#1342);
#1075=AXIS2_PLACEMENT_3D('',#1595,#1343,#1344);
#1076=AXIS2_PLACEMENT_3D('',#1596,#1345,#1346);
#1077=AXIS2_PLACEMENT_3D('',#1598,#1347,#1348);
#1078=AXIS2_PLACEMENT_3D('',#1600,#1350,#1351);
#1079=AXIS2_PLACEMENT_3D('',#1603,#1353,#1354);
#1080=AXIS2_PLACEMENT_3D('',#1604,#1355,#1356);
#1081=AXIS2_PLACEMENT_3D('',#1606,#1357,#1358);
#1082=AXIS2_PLACEMENT_3D('',#1608,#1359,#1360);
#1083=AXIS2_PLACEMENT_3D('',#1609,#1361,#1362);
#1084=AXIS2_PLACEMENT_3D('',#1611,#1363,#1364);
#1085=AXIS2_PLACEMENT_3D('',#1613,#1366,#1367);
#1086=AXIS2_PLACEMENT_3D('',#1616,#1369,#1370);
#1087=AXIS2_PLACEMENT_3D('',#1617,#1371,#1372);
#1088=AXIS2_PLACEMENT_3D('',#1619,#1373,#1374);
#1089=AXIS2_PLACEMENT_3D('',#1622,#1376,#1377);
#1090=AXIS2_PLACEMENT_3D('',#1623,#1378,#1379);
#1091=AXIS2_PLACEMENT_3D('',#1624,#1380,#1381);
#1092=AXIS2_PLACEMENT_3D('',#1625,#1382,#1383);
#1093=AXIS2_PLACEMENT_3D('',#1626,#1384,#1385);
#1094=AXIS2_PLACEMENT_3D('',#1627,#1386,#1387);
#1095=AXIS2_PLACEMENT_3D('',#1628,#1388,#1389);
#1096=AXIS2_PLACEMENT_3D('',#1629,#1390,#1391);
#1097=AXIS2_PLACEMENT_3D('',#1630,#1392,#1393);
#1098=AXIS2_PLACEMENT_3D('',#1631,#1394,#1395);
#1099=DIRECTION('axis',(0.,0.,1.));
#1100=DIRECTION('refdir',(1.,0.,0.));
#1101=DIRECTION('axis',(0.,0.,1.));
#1102=DIRECTION('refdir',(1.,0.,0.));
#1103=DIRECTION('center_axis',(0.,1.,0.));
#1104=DIRECTION('ref_axis',(1.,0.,0.));
#1105=DIRECTION('center_axis',(0.,-1.,0.));
#1106=DIRECTION('ref_axis',(1.,0.,0.));
#1107=DIRECTION('',(0.,-1.,0.));
#1108=DIRECTION('center_axis',(0.,1.,0.));
#1109=DIRECTION('ref_axis',(1.,0.,0.));
#1110=DIRECTION('center_axis',(0.,1.,0.));
#1111=DIRECTION('ref_axis',(1.,0.,0.));
#1112=DIRECTION('center_axis',(0.,-1.,0.));
#1113=DIRECTION('ref_axis',(1.,0.,0.));
#1114=DIRECTION('',(0.,-1.,0.));
#1115=DIRECTION('center_axis',(0.,1.,0.));
#1116=DIRECTION('ref_axis',(1.,0.,0.));
#1117=DIRECTION('center_axis',(0.,1.,0.));
#1118=DIRECTION('ref_axis',(1.,0.,0.));
#1119=DIRECTION('center_axis',(0.,-1.,0.));
#1120=DIRECTION('ref_axis',(1.,0.,0.));
#1121=DIRECTION('',(0.,-1.,0.));
#1122=DIRECTION('center_axis',(0.,1.,0.));
#1123=DIRECTION('ref_axis',(1.,0.,0.));
#1124=DIRECTION('center_axis',(0.,1.,0.));
#1125=DIRECTION('ref_axis',(1.,0.,0.));
#1126=DIRECTION('center_axis',(0.,-1.,0.));
#1127=DIRECTION('ref_axis',(1.,0.,0.));
#1128=DIRECTION('',(0.,-1.,0.));
#1129=DIRECTION('center_axis',(0.,1.,0.));
#1130=DIRECTION('ref_axis',(1.,0.,0.));
#1131=DIRECTION('center_axis',(0.,1.,0.));
#1132=DIRECTION('ref_axis',(1.,0.,0.));
#1133=DIRECTION('center_axis',(0.,-1.,0.));
#1134=DIRECTION('ref_axis',(1.,0.,0.));
#1135=DIRECTION('',(0.,-1.,0.));
#1136=DIRECTION('center_axis',(0.,1.,0.));
#1137=DIRECTION('ref_axis',(1.,0.,0.));
#1138=DIRECTION('center_axis',(0.,1.,0.));
#1139=DIRECTION('ref_axis',(1.,0.,0.));
#1140=DIRECTION('center_axis',(0.,-1.,0.));
#1141=DIRECTION('ref_axis',(1.,0.,0.));
#1142=DIRECTION('',(0.,-1.,0.));
#1143=DIRECTION('center_axis',(0.,1.,0.));
#1144=DIRECTION('ref_axis',(1.,0.,0.));
#1145=DIRECTION('center_axis',(0.,1.,0.));
#1146=DIRECTION('ref_axis',(1.,0.,0.));
#1147=DIRECTION('center_axis',(0.,-1.,0.));
#1148=DIRECTION('ref_axis',(1.,0.,0.));
#1149=DIRECTION('',(0.,-1.,0.));
#1150=DIRECTION('center_axis',(0.,1.,0.));
#1151=DIRECTION('ref_axis',(1.,0.,0.));
#1152=DIRECTION('center_axis',(0.,1.,0.));
#1153=DIRECTION('ref_axis',(1.,0.,0.));
#1154=DIRECTION('center_axis',(0.,1.,0.));
#1155=DIRECTION('ref_axis',(1.,0.,0.));
#1156=DIRECTION('center_axis',(0.,1.,0.));
#1157=DIRECTION('ref_axis',(1.,0.,0.));
#1158=DIRECTION('center_axis',(0.,1.,0.));
#1159=DIRECTION('ref_axis',(1.,0.,0.));
#1160=DIRECTION('center_axis',(0.,-1.,0.));
#1161=DIRECTION('ref_axis',(1.,0.,0.));
#1162=DIRECTION('',(0.,-1.,0.));
#1163=DIRECTION('center_axis',(0.,1.,0.));
#1164=DIRECTION('ref_axis',(1.,0.,0.));
#1165=DIRECTION('',(0.,-1.,0.));
#1166=DIRECTION('center_axis',(0.,1.,0.));
#1167=DIRECTION('ref_axis',(1.,0.,0.));
#1168=DIRECTION('center_axis',(0.,1.,0.));
#1169=DIRECTION('ref_axis',(1.,0.,0.));
#1170=DIRECTION('center_axis',(0.,1.,0.));
#1171=DIRECTION('ref_axis',(1.,0.,0.));
#1172=DIRECTION('center_axis',(0.,1.,0.));
#1173=DIRECTION('ref_axis',(1.,0.,0.));
#1174=DIRECTION('center_axis',(0.,1.,0.));
#1175=DIRECTION('ref_axis',(1.,0.,0.));
#1176=DIRECTION('center_axis',(0.,-1.,0.));
#1177=DIRECTION('ref_axis',(1.,0.,0.));
#1178=DIRECTION('',(0.,-1.,0.));
#1179=DIRECTION('center_axis',(0.,1.,0.));
#1180=DIRECTION('ref_axis',(1.,0.,0.));
#1181=DIRECTION('',(0.,-1.,0.));
#1182=DIRECTION('center_axis',(0.,1.,0.));
#1183=DIRECTION('ref_axis',(1.,0.,0.));
#1184=DIRECTION('center_axis',(0.,1.,0.));
#1185=DIRECTION('ref_axis',(1.,0.,0.));
#1186=DIRECTION('center_axis',(0.,1.,0.));
#1187=DIRECTION('ref_axis',(1.,0.,0.));
#1188=DIRECTION('center_axis',(0.,1.,0.));
#1189=DIRECTION('ref_axis',(1.,0.,0.));
#1190=DIRECTION('center_axis',(0.,1.,0.));
#1191=DIRECTION('ref_axis',(1.,0.,0.));
#1192=DIRECTION('center_axis',(0.,-1.,0.));
#1193=DIRECTION('ref_axis',(1.,0.,0.));
#1194=DIRECTION('',(0.,-1.,0.));
#1195=DIRECTION('center_axis',(0.,1.,0.));
#1196=DIRECTION('ref_axis',(1.,0.,0.));
#1197=DIRECTION('',(0.,-1.,0.));
#1198=DIRECTION('center_axis',(0.,1.,0.));
#1199=DIRECTION('ref_axis',(1.,0.,0.));
#1200=DIRECTION('center_axis',(0.,1.,0.));
#1201=DIRECTION('ref_axis',(1.,0.,0.));
#1202=DIRECTION('center_axis',(0.,1.,0.));
#1203=DIRECTION('ref_axis',(1.,0.,0.));
#1204=DIRECTION('center_axis',(0.,1.,0.));
#1205=DIRECTION('ref_axis',(1.,0.,0.));
#1206=DIRECTION('center_axis',(0.,1.,0.));
#1207=DIRECTION('ref_axis',(1.,0.,0.));
#1208=DIRECTION('center_axis',(0.,-1.,0.));
#1209=DIRECTION('ref_axis',(1.,0.,0.));
#1210=DIRECTION('',(0.,-1.,0.));
#1211=DIRECTION('center_axis',(0.,1.,0.));
#1212=DIRECTION('ref_axis',(1.,0.,0.));
#1213=DIRECTION('',(0.,-1.,0.));
#1214=DIRECTION('center_axis',(0.,1.,0.));
#1215=DIRECTION('ref_axis',(1.,0.,0.));
#1216=DIRECTION('center_axis',(0.,1.,0.));
#1217=DIRECTION('ref_axis',(-1.,0.,0.));
#1218=DIRECTION('center_axis',(0.,1.,0.));
#1219=DIRECTION('ref_axis',(-1.,0.,0.));
#1220=DIRECTION('',(0.,-1.,0.));
#1221=DIRECTION('center_axis',(0.,1.,0.));
#1222=DIRECTION('ref_axis',(-1.,0.,0.));
#1223=DIRECTION('center_axis',(0.,1.,0.));
#1224=DIRECTION('ref_axis',(0.,0.,1.));
#1225=DIRECTION('center_axis',(0.,1.,0.));
#1226=DIRECTION('ref_axis',(0.,0.,1.));
#1227=DIRECTION('axis',(0.,0.,1.));
#1228=DIRECTION('refdir',(1.,0.,0.));
#1229=DIRECTION('center_axis',(0.,1.,0.));
#1230=DIRECTION('ref_axis',(1.,0.,0.));
#1231=DIRECTION('center_axis',(0.,-1.,0.));
#1232=DIRECTION('ref_axis',(1.,0.,0.));
#1233=DIRECTION('',(0.,-1.,0.));
#1234=DIRECTION('center_axis',(0.,1.,0.));
#1235=DIRECTION('ref_axis',(1.,0.,0.));
#1236=DIRECTION('center_axis',(0.,1.,0.));
#1237=DIRECTION('ref_axis',(1.,0.,0.));
#1238=DIRECTION('center_axis',(0.,1.,0.));
#1239=DIRECTION('ref_axis',(1.,0.,0.));
#1240=DIRECTION('',(0.,-1.,0.));
#1241=DIRECTION('center_axis',(0.,-1.,0.));
#1242=DIRECTION('ref_axis',(1.,0.,0.));
#1243=DIRECTION('center_axis',(0.,1.,0.));
#1244=DIRECTION('ref_axis',(0.,0.,1.));
#1245=DIRECTION('center_axis',(0.,1.,0.));
#1246=DIRECTION('ref_axis',(-1.,0.,0.));
#1247=DIRECTION('center_axis',(0.,1.,0.));
#1248=DIRECTION('ref_axis',(-1.,0.,0.));
#1249=DIRECTION('',(0.,-1.,0.));
#1250=DIRECTION('center_axis',(0.,1.,0.));
#1251=DIRECTION('ref_axis',(-1.,0.,0.));
#1252=DIRECTION('center_axis',(0.,1.,0.));
#1253=DIRECTION('ref_axis',(0.,0.,1.));
#1254=DIRECTION('center_axis',(0.,1.,0.));
#1255=DIRECTION('ref_axis',(0.,0.,1.));
#1256=DIRECTION('axis',(0.,0.,1.));
#1257=DIRECTION('refdir',(1.,0.,0.));
#1258=DIRECTION('center_axis',(0.,1.,0.));
#1259=DIRECTION('ref_axis',(1.,0.,0.));
#1260=DIRECTION('center_axis',(0.,-1.,0.));
#1261=DIRECTION('ref_axis',(1.,0.,0.));
#1262=DIRECTION('',(0.,-1.,0.));
#1263=DIRECTION('center_axis',(0.,1.,0.));
#1264=DIRECTION('ref_axis',(1.,0.,0.));
#1265=DIRECTION('center_axis',(0.,1.,0.));
#1266=DIRECTION('ref_axis',(1.,0.,0.));
#1267=DIRECTION('center_axis',(0.,-1.,0.));
#1268=DIRECTION('ref_axis',(1.,0.,0.));
#1269=DIRECTION('',(0.,-1.,0.));
#1270=DIRECTION('center_axis',(0.,1.,0.));
#1271=DIRECTION('ref_axis',(1.,0.,0.));
#1272=DIRECTION('center_axis',(0.,1.,0.));
#1273=DIRECTION('ref_axis',(1.,0.,0.));
#1274=DIRECTION('center_axis',(0.,-1.,0.));
#1275=DIRECTION('ref_axis',(1.,0.,0.));
#1276=DIRECTION('',(0.,-1.,0.));
#1277=DIRECTION('center_axis',(0.,1.,0.));
#1278=DIRECTION('ref_axis',(1.,0.,0.));
#1279=DIRECTION('center_axis',(0.,1.,0.));
#1280=DIRECTION('ref_axis',(1.,0.,0.));
#1281=DIRECTION('center_axis',(0.,-1.,0.));
#1282=DIRECTION('ref_axis',(1.,0.,0.));
#1283=DIRECTION('',(0.,-1.,0.));
#1284=DIRECTION('center_axis',(0.,1.,0.));
#1285=DIRECTION('ref_axis',(1.,0.,0.));
#1286=DIRECTION('center_axis',(0.,1.,0.));
#1287=DIRECTION('ref_axis',(1.,0.,0.));
#1288=DIRECTION('center_axis',(0.,-1.,0.));
#1289=DIRECTION('ref_axis',(1.,0.,0.));
#1290=DIRECTION('',(0.,-1.,0.));
#1291=DIRECTION('center_axis',(0.,1.,0.));
#1292=DIRECTION('ref_axis',(1.,0.,0.));
#1293=DIRECTION('center_axis',(0.,1.,0.));
#1294=DIRECTION('ref_axis',(1.,0.,0.));
#1295=DIRECTION('center_axis',(0.,-1.,0.));
#1296=DIRECTION('ref_axis',(1.,0.,0.));
#1297=DIRECTION('',(0.,-1.,0.));
#1298=DIRECTION('center_axis',(0.,1.,0.));
#1299=DIRECTION('ref_axis',(1.,0.,0.));
#1300=DIRECTION('center_axis',(0.,1.,0.));
#1301=DIRECTION('ref_axis',(1.,0.,0.));
#1302=DIRECTION('center_axis',(0.,-1.,0.));
#1303=DIRECTION('ref_axis',(1.,0.,0.));
#1304=DIRECTION('',(0.,-1.,0.));
#1305=DIRECTION('center_axis',(0.,1.,0.));
#1306=DIRECTION('ref_axis',(1.,0.,0.));
#1307=DIRECTION('center_axis',(0.,1.,0.));
#1308=DIRECTION('ref_axis',(1.,0.,0.));
#1309=DIRECTION('center_axis',(0.,1.,0.));
#1310=DIRECTION('ref_axis',(1.,0.,0.));
#1311=DIRECTION('center_axis',(0.,1.,0.));
#1312=DIRECTION('ref_axis',(1.,0.,0.));
#1313=DIRECTION('center_axis',(0.,1.,0.));
#1314=DIRECTION('ref_axis',(1.,0.,0.));
#1315=DIRECTION('center_axis',(0.,-1.,0.));
#1316=DIRECTION('ref_axis',(1.,0.,0.));
#1317=DIRECTION('',(0.,-1.,0.));
#1318=DIRECTION('center_axis',(0.,1.,0.));
#1319=DIRECTION('ref_axis',(1.,0.,0.));
#1320=DIRECTION('',(0.,-1.,0.));
#1321=DIRECTION('center_axis',(0.,1.,0.));
#1322=DIRECTION('ref_axis',(1.,0.,0.));
#1323=DIRECTION('center_axis',(0.,1.,0.));
#1324=DIRECTION('ref_axis',(1.,0.,0.));
#1325=DIRECTION('center_axis',(0.,1.,0.));
#1326=DIRECTION('ref_axis',(1.,0.,0.));
#1327=DIRECTION('center_axis',(0.,1.,0.));
#1328=DIRECTION('ref_axis',(1.,0.,0.));
#1329=DIRECTION('center_axis',(0.,1.,0.));
#1330=DIRECTION('ref_axis',(1.,0.,0.));
#1331=DIRECTION('center_axis',(0.,-1.,0.));
#1332=DIRECTION('ref_axis',(1.,0.,0.));
#1333=DIRECTION('',(0.,-1.,0.));
#1334=DIRECTION('center_axis',(0.,1.,0.));
#1335=DIRECTION('ref_axis',(1.,0.,0.));
#1336=DIRECTION('',(0.,-1.,0.));
#1337=DIRECTION('center_axis',(0.,1.,0.));
#1338=DIRECTION('ref_axis',(1.,0.,0.));
#1339=DIRECTION('center_axis',(0.,1.,0.));
#1340=DIRECTION('ref_axis',(1.,0.,0.));
#1341=DIRECTION('center_axis',(0.,1.,0.));
#1342=DIRECTION('ref_axis',(1.,0.,0.));
#1343=DIRECTION('center_axis',(0.,1.,0.));
#1344=DIRECTION('ref_axis',(1.,0.,0.));
#1345=DIRECTION('center_axis',(0.,1.,0.));
#1346=DIRECTION('ref_axis',(1.,0.,0.));
#1347=DIRECTION('center_axis',(0.,-1.,0.));
#1348=DIRECTION('ref_axis',(1.,0.,0.));
#1349=DIRECTION('',(0.,-1.,0.));
#1350=DIRECTION('center_axis',(0.,1.,0.));
#1351=DIRECTION('ref_axis',(1.,0.,0.));
#1352=DIRECTION('',(0.,-1.,0.));
#1353=DIRECTION('center_axis',(0.,1.,0.));
#1354=DIRECTION('ref_axis',(1.,0.,0.));
#1355=DIRECTION('center_axis',(0.,1.,0.));
#1356=DIRECTION('ref_axis',(1.,0.,0.));
#1357=DIRECTION('center_axis',(0.,1.,0.));
#1358=DIRECTION('ref_axis',(1.,0.,0.));
#1359=DIRECTION('center_axis',(0.,1.,0.));
#1360=DIRECTION('ref_axis',(1.,0.,0.));
#1361=DIRECTION('center_axis',(0.,1.,0.));
#1362=DIRECTION('ref_axis',(1.,0.,0.));
#1363=DIRECTION('center_axis',(0.,-1.,0.));
#1364=DIRECTION('ref_axis',(1.,0.,0.));
#1365=DIRECTION('',(0.,-1.,0.));
#1366=DIRECTION('center_axis',(0.,1.,0.));
#1367=DIRECTION('ref_axis',(1.,0.,0.));
#1368=DIRECTION('',(0.,-1.,0.));
#1369=DIRECTION('center_axis',(0.,1.,0.));
#1370=DIRECTION('ref_axis',(1.,0.,0.));
#1371=DIRECTION('center_axis',(0.,1.,0.));
#1372=DIRECTION('ref_axis',(-1.,0.,0.));
#1373=DIRECTION('center_axis',(0.,1.,0.));
#1374=DIRECTION('ref_axis',(-1.,0.,0.));
#1375=DIRECTION('',(0.,-1.,0.));
#1376=DIRECTION('center_axis',(0.,1.,0.));
#1377=DIRECTION('ref_axis',(-1.,0.,0.));
#1378=DIRECTION('center_axis',(0.,1.,0.));
#1379=DIRECTION('ref_axis',(0.,0.,1.));
#1380=DIRECTION('center_axis',(0.,1.,0.));
#1381=DIRECTION('ref_axis',(0.,0.,1.));
#1382=DIRECTION('',(-8.06787405042203E-5,-6.06569249627523E-17,0.99999999674547));
#1383=DIRECTION('',(0.99999999674547,1.52655664892315E-16,8.06787405042203E-5));
#1384=DIRECTION('',(0.,0.,1.));
#1385=DIRECTION('',(1.,0.,0.));
#1386=DIRECTION('',(0.00709329089913213,4.3433879975216E-19,0.999974842295655));
#1387=DIRECTION('',(0.999974842295655,6.12307994922625E-17,-0.00709329089913213));
#1388=DIRECTION('',(-8.06787405042203E-5,-6.06569249627523E-17,0.99999999674547));
#1389=DIRECTION('',(0.99999999674547,1.52655664892315E-16,8.06787405042203E-5));
#1390=DIRECTION('',(0.,0.,1.));
#1391=DIRECTION('',(1.,0.,0.));
#1392=DIRECTION('',(0.00709329089913213,4.3433879975216E-19,0.999974842295655));
#1393=DIRECTION('',(0.999974842295655,6.12307994922625E-17,-0.00709329089913213));
#1394=DIRECTION('',(-1.19462758853878E-90,-1.95097490917582E-74,-1.));
#1395=DIRECTION('',(-1.,6.12323399404171E-17,0.));
#1396=CARTESIAN_POINT('',(0.,0.,0.));
#1397=CARTESIAN_POINT('',(0.,0.,0.));
#1398=CARTESIAN_POINT('Origin',(7.50000000000001,-48.9722150740545,-12.9903810567666));
#1399=CARTESIAN_POINT('',(6.27050000000001,5.,-12.9903810567666));
#1400=CARTESIAN_POINT('Origin',(7.50000000000001,5.,-12.9903810567666));
#1401=CARTESIAN_POINT('',(6.27050000000001,0.,-12.9903810567666));
#1402=CARTESIAN_POINT('',(6.27050000000001,-48.9722150740545,-12.9903810567666));
#1403=CARTESIAN_POINT('Origin',(7.50000000000001,0.,-12.9903810567666));
#1404=CARTESIAN_POINT('Origin',(7.5,-48.9722150740545,12.9903810567666));
#1405=CARTESIAN_POINT('',(6.2705,5.,12.9903810567666));
#1406=CARTESIAN_POINT('Origin',(7.5,5.,12.9903810567666));
#1407=CARTESIAN_POINT('',(6.2705,0.,12.9903810567666));
#1408=CARTESIAN_POINT('',(6.2705,-48.9722150740545,12.9903810567666));
#1409=CARTESIAN_POINT('Origin',(7.5,0.,12.9903810567666));
#1410=CARTESIAN_POINT('Origin',(-15.,-48.9722150740545,0.));
#1411=CARTESIAN_POINT('',(-16.2295,5.,1.50570323955167E-16));
#1412=CARTESIAN_POINT('Origin',(-15.,5.,0.));
#1413=CARTESIAN_POINT('',(-16.2295,0.,1.50570323955167E-16));
#1414=CARTESIAN_POINT('',(-16.2295,-48.9722150740545,1.50570323955167E-16));
#1415=CARTESIAN_POINT('Origin',(-15.,0.,0.));
#1416=CARTESIAN_POINT('Origin',(-7.5,-48.9722150740545,12.9903810567666));
#1417=CARTESIAN_POINT('',(-8.7295,5.,12.9903810567666));
#1418=CARTESIAN_POINT('Origin',(-7.5,5.,12.9903810567666));
#1419=CARTESIAN_POINT('',(-8.7295,0.,12.9903810567666));
#1420=CARTESIAN_POINT('',(-8.7295,-48.9722150740545,12.9903810567666));
#1421=CARTESIAN_POINT('Origin',(-7.5,0.,12.9903810567666));
#1422=CARTESIAN_POINT('Origin',(15.,-48.9722150740545,1.83697019872103E-15));
#1423=CARTESIAN_POINT('',(13.7705,5.,1.9875405226762E-15));
#1424=CARTESIAN_POINT('Origin',(15.,5.,1.83697019872103E-15));
#1425=CARTESIAN_POINT('',(13.7705,0.,1.9875405226762E-15));
#1426=CARTESIAN_POINT('',(13.7705,-48.9722150740545,1.9875405226762E-15));
#1427=CARTESIAN_POINT('Origin',(15.,0.,1.83697019872103E-15));
#1428=CARTESIAN_POINT('Origin',(-7.49999999999999,-48.9722150740545,-12.9903810567666));
#1429=CARTESIAN_POINT('',(-8.72949999999999,5.,-12.9903810567666));
#1430=CARTESIAN_POINT('Origin',(-7.49999999999999,5.,-12.9903810567666));
#1431=CARTESIAN_POINT('',(-8.72949999999999,0.,-12.9903810567666));
#1432=CARTESIAN_POINT('',(-8.72949999999999,-48.9722150740545,-12.9903810567666));
#1433=CARTESIAN_POINT('Origin',(-7.49999999999999,0.,-12.9903810567666));
#1434=CARTESIAN_POINT('Origin',(0.,-48.9722150740545,0.));
#1435=CARTESIAN_POINT('',(-3.,5.,3.67394039744206E-16));
#1436=CARTESIAN_POINT('Origin',(0.,5.,0.));
#1437=CARTESIAN_POINT('',(-3.,0.,3.67394039744206E-16));
#1438=CARTESIAN_POINT('',(-3.,-48.9722150740545,3.67394039744206E-16));
#1439=CARTESIAN_POINT('Origin',(0.,0.,0.));
#1440=CARTESIAN_POINT('Origin',(7.,2.,8.57252759403147E-16));
#1441=CARTESIAN_POINT('',(4.,2.,1.22464679914735E-15));
#1442=CARTESIAN_POINT('Origin',(7.,2.,8.57252759403147E-16));
#1443=CARTESIAN_POINT('',(5.45,2.,1.04707301327099E-15));
#1444=CARTESIAN_POINT('Origin',(7.,2.,8.57252759403147E-16));
#1445=CARTESIAN_POINT('Origin',(7.,3.5,8.57252759403147E-16));
#1446=CARTESIAN_POINT('',(4.,5.,1.22464679914735E-15));
#1447=CARTESIAN_POINT('Origin',(7.,5.,8.57252759403147E-16));
#1448=CARTESIAN_POINT('',(4.,3.5,1.22464679914735E-15));
#1449=CARTESIAN_POINT('Origin',(7.,-48.9722150740545,8.57252759403147E-16));
#1450=CARTESIAN_POINT('',(5.45,0.,1.04707301327099E-15));
#1451=CARTESIAN_POINT('',(5.45,-48.9722150740545,1.04707301327099E-15));
#1452=CARTESIAN_POINT('Origin',(7.,0.,8.57252759403147E-16));
#1453=CARTESIAN_POINT('Origin',(-7.,2.,0.));
#1454=CARTESIAN_POINT('',(-10.,2.,3.67394039744206E-16));
#1455=CARTESIAN_POINT('Origin',(-7.,2.,0.));
#1456=CARTESIAN_POINT('',(-8.55,2.,1.8982025386784E-16));
#1457=CARTESIAN_POINT('Origin',(-7.,2.,0.));
#1458=CARTESIAN_POINT('Origin',(-7.,3.5,0.));
#1459=CARTESIAN_POINT('',(-10.,5.,3.67394039744206E-16));
#1460=CARTESIAN_POINT('Origin',(-7.,5.,0.));
#1461=CARTESIAN_POINT('',(-10.,3.5,3.67394039744206E-16));
#1462=CARTESIAN_POINT('Origin',(-7.,-48.9722150740545,0.));
#1463=CARTESIAN_POINT('',(-8.55,0.,1.8982025386784E-16));
#1464=CARTESIAN_POINT('',(-8.55,-48.9722150740545,1.8982025386784E-16));
#1465=CARTESIAN_POINT('Origin',(-7.,0.,0.));
#1466=CARTESIAN_POINT('Origin',(-4.28626379701574E-16,2.,7.));
#1467=CARTESIAN_POINT('',(-3.,2.,7.));
#1468=CARTESIAN_POINT('Origin',(-4.28626379701574E-16,2.,7.));
#1469=CARTESIAN_POINT('',(-1.55,2.,7.));
#1470=CARTESIAN_POINT('Origin',(-4.28626379701574E-16,2.,7.));
#1471=CARTESIAN_POINT('Origin',(-4.28626379701574E-16,3.5,7.));
#1472=CARTESIAN_POINT('',(-3.,5.,7.));
#1473=CARTESIAN_POINT('Origin',(-4.28626379701574E-16,5.,7.));
#1474=CARTESIAN_POINT('',(-3.,3.5,7.));
#1475=CARTESIAN_POINT('Origin',(-4.28626379701574E-16,-48.9722150740545,
7.));
#1476=CARTESIAN_POINT('',(-1.55,0.,7.));
#1477=CARTESIAN_POINT('',(-1.55,-48.9722150740545,7.));
#1478=CARTESIAN_POINT('Origin',(-4.28626379701574E-16,0.,7.));
#1479=CARTESIAN_POINT('Origin',(1.28587913910472E-15,2.,-7.));
#1480=CARTESIAN_POINT('',(-3.,2.,-7.));
#1481=CARTESIAN_POINT('Origin',(1.28587913910472E-15,2.,-7.));
#1482=CARTESIAN_POINT('',(-1.55,2.,-7.));
#1483=CARTESIAN_POINT('Origin',(1.28587913910472E-15,2.,-7.));
#1484=CARTESIAN_POINT('Origin',(1.28587913910472E-15,3.5,-7.));
#1485=CARTESIAN_POINT('',(-3.,5.,-7.));
#1486=CARTESIAN_POINT('Origin',(1.28587913910472E-15,5.,-7.));
#1487=CARTESIAN_POINT('',(-3.,3.5,-7.));
#1488=CARTESIAN_POINT('Origin',(1.28587913910472E-15,-48.9722150740545,
-7.));
#1489=CARTESIAN_POINT('',(-1.55,0.,-7.));
#1490=CARTESIAN_POINT('',(-1.55,-48.9722150740545,-7.));
#1491=CARTESIAN_POINT('Origin',(1.28587913910472E-15,0.,-7.));
#1492=CARTESIAN_POINT('Origin',(0.,0.,0.));
#1493=CARTESIAN_POINT('',(19.,5.,-2.32682891837997E-15));
#1494=CARTESIAN_POINT('Origin',(0.,5.,0.));
#1495=CARTESIAN_POINT('',(19.,0.,-2.32682891837997E-15));
#1496=CARTESIAN_POINT('',(19.,0.,-2.32682891837997E-15));
#1497=CARTESIAN_POINT('Origin',(0.,0.,0.));
#1498=CARTESIAN_POINT('Origin',(0.,5.,0.));
#1499=CARTESIAN_POINT('Origin',(0.,0.,0.));
#1500=CARTESIAN_POINT('',(0.,0.,0.));
#1501=CARTESIAN_POINT('Origin',(0.,-7.36931687685298,0.));
#1502=CARTESIAN_POINT('',(-1.2295,5.,1.50570323955167E-16));
#1503=CARTESIAN_POINT('Origin',(0.,5.,0.));
#1504=CARTESIAN_POINT('',(-1.2295,0.,1.50570323955167E-16));
#1505=CARTESIAN_POINT('',(-1.2295,-7.36931687685298,1.50570323955167E-16));
#1506=CARTESIAN_POINT('Origin',(0.,0.,0.));
#1507=CARTESIAN_POINT('Origin',(0.,0.75,0.));
#1508=CARTESIAN_POINT('',(-2.,5.,2.44929359829471E-16));
#1509=CARTESIAN_POINT('Origin',(0.,5.,0.));
#1510=CARTESIAN_POINT('',(-2.,0.75,2.44929359829471E-16));
#1511=CARTESIAN_POINT('',(-2.,0.75,2.44929359829471E-16));
#1512=CARTESIAN_POINT('Origin',(0.,0.75,0.));
#1513=CARTESIAN_POINT('Origin',(0.,5.,0.));
#1514=CARTESIAN_POINT('Origin',(0.,0.,0.));
#1515=CARTESIAN_POINT('',(4.,0.75,-4.89858719658941E-16));
#1516=CARTESIAN_POINT('Origin',(0.,0.75,0.));
#1517=CARTESIAN_POINT('',(4.,0.,-4.89858719658941E-16));
#1518=CARTESIAN_POINT('',(4.,0.,-4.89858719658941E-16));
#1519=CARTESIAN_POINT('Origin',(0.,0.,0.));
#1520=CARTESIAN_POINT('Origin',(0.,0.75,0.));
#1521=CARTESIAN_POINT('Origin',(0.,0.,0.));
#1522=CARTESIAN_POINT('',(0.,0.,0.));
#1523=CARTESIAN_POINT('Origin',(7.50000000000001,-48.9722150740545,-12.9903810567666));
#1524=CARTESIAN_POINT('',(6.27050000000001,5.,-12.9903810567666));
#1525=CARTESIAN_POINT('Origin',(7.50000000000001,5.,-12.9903810567666));
#1526=CARTESIAN_POINT('',(6.27050000000001,0.,-12.9903810567666));
#1527=CARTESIAN_POINT('',(6.27050000000001,-48.9722150740545,-12.9903810567666));
#1528=CARTESIAN_POINT('Origin',(7.50000000000001,0.,-12.9903810567666));
#1529=CARTESIAN_POINT('Origin',(7.5,-48.9722150740545,12.9903810567666));
#1530=CARTESIAN_POINT('',(6.2705,5.,12.9903810567666));
#1531=CARTESIAN_POINT('Origin',(7.5,5.,12.9903810567666));
#1532=CARTESIAN_POINT('',(6.2705,0.,12.9903810567666));
#1533=CARTESIAN_POINT('',(6.2705,-48.9722150740545,12.9903810567666));
#1534=CARTESIAN_POINT('Origin',(7.5,0.,12.9903810567666));
#1535=CARTESIAN_POINT('Origin',(-15.,-48.9722150740545,0.));
#1536=CARTESIAN_POINT('',(-16.2295,5.,1.50570323955167E-16));
#1537=CARTESIAN_POINT('Origin',(-15.,5.,0.));
#1538=CARTESIAN_POINT('',(-16.2295,0.,1.50570323955167E-16));
#1539=CARTESIAN_POINT('',(-16.2295,-48.9722150740545,1.50570323955167E-16));
#1540=CARTESIAN_POINT('Origin',(-15.,0.,0.));
#1541=CARTESIAN_POINT('Origin',(-7.5,-48.9722150740545,12.9903810567666));
#1542=CARTESIAN_POINT('',(-8.7295,5.,12.9903810567666));
#1543=CARTESIAN_POINT('Origin',(-7.5,5.,12.9903810567666));
#1544=CARTESIAN_POINT('',(-8.7295,0.,12.9903810567666));
#1545=CARTESIAN_POINT('',(-8.7295,-48.9722150740545,12.9903810567666));
#1546=CARTESIAN_POINT('Origin',(-7.5,0.,12.9903810567666));
#1547=CARTESIAN_POINT('Origin',(15.,-48.9722150740545,1.83697019872103E-15));
#1548=CARTESIAN_POINT('',(13.7705,5.,1.9875405226762E-15));
#1549=CARTESIAN_POINT('Origin',(15.,5.,1.83697019872103E-15));
#1550=CARTESIAN_POINT('',(13.7705,0.,1.9875405226762E-15));
#1551=CARTESIAN_POINT('',(13.7705,-48.9722150740545,1.9875405226762E-15));
#1552=CARTESIAN_POINT('Origin',(15.,0.,1.83697019872103E-15));
#1553=CARTESIAN_POINT('Origin',(-7.49999999999999,-48.9722150740545,-12.9903810567666));
#1554=CARTESIAN_POINT('',(-8.72949999999999,5.,-12.9903810567666));
#1555=CARTESIAN_POINT('Origin',(-7.49999999999999,5.,-12.9903810567666));
#1556=CARTESIAN_POINT('',(-8.72949999999999,0.,-12.9903810567666));
#1557=CARTESIAN_POINT('',(-8.72949999999999,-48.9722150740545,-12.9903810567666));
#1558=CARTESIAN_POINT('Origin',(-7.49999999999999,0.,-12.9903810567666));
#1559=CARTESIAN_POINT('Origin',(0.,-48.9722150740545,0.));
#1560=CARTESIAN_POINT('',(-3.,5.,3.67394039744206E-16));
#1561=CARTESIAN_POINT('Origin',(0.,5.,0.));
#1562=CARTESIAN_POINT('',(-3.,0.,3.67394039744206E-16));
#1563=CARTESIAN_POINT('',(-3.,-48.9722150740545,3.67394039744206E-16));
#1564=CARTESIAN_POINT('Origin',(0.,0.,0.));
#1565=CARTESIAN_POINT('Origin',(7.,2.,8.57252759403147E-16));
#1566=CARTESIAN_POINT('',(4.,2.,1.22464679914735E-15));
#1567=CARTESIAN_POINT('Origin',(7.,2.,8.57252759403147E-16));
#1568=CARTESIAN_POINT('',(5.45,2.,1.04707301327099E-15));
#1569=CARTESIAN_POINT('Origin',(7.,2.,8.57252759403147E-16));
#1570=CARTESIAN_POINT('Origin',(7.,3.5,8.57252759403147E-16));
#1571=CARTESIAN_POINT('',(4.,5.,1.22464679914735E-15));
#1572=CARTESIAN_POINT('Origin',(7.,5.,8.57252759403147E-16));
#1573=CARTESIAN_POINT('',(4.,3.5,1.22464679914735E-15));
#1574=CARTESIAN_POINT('Origin',(7.,-48.9722150740545,8.57252759403147E-16));
#1575=CARTESIAN_POINT('',(5.45,0.,1.04707301327099E-15));
#1576=CARTESIAN_POINT('',(5.45,-48.9722150740545,1.04707301327099E-15));
#1577=CARTESIAN_POINT('Origin',(7.,0.,8.57252759403147E-16));
#1578=CARTESIAN_POINT('Origin',(-7.,2.,0.));
#1579=CARTESIAN_POINT('',(-10.,2.,3.67394039744206E-16));
#1580=CARTESIAN_POINT('Origin',(-7.,2.,0.));
#1581=CARTESIAN_POINT('',(-8.55,2.,1.8982025386784E-16));
#1582=CARTESIAN_POINT('Origin',(-7.,2.,0.));
#1583=CARTESIAN_POINT('Origin',(-7.,3.5,0.));
#1584=CARTESIAN_POINT('',(-10.,5.,3.67394039744206E-16));
#1585=CARTESIAN_POINT('Origin',(-7.,5.,0.));
#1586=CARTESIAN_POINT('',(-10.,3.5,3.67394039744206E-16));
#1587=CARTESIAN_POINT('Origin',(-7.,-48.9722150740545,0.));
#1588=CARTESIAN_POINT('',(-8.55,0.,1.8982025386784E-16));
#1589=CARTESIAN_POINT('',(-8.55,-48.9722150740545,1.8982025386784E-16));
#1590=CARTESIAN_POINT('Origin',(-7.,0.,0.));
#1591=CARTESIAN_POINT('Origin',(-4.28626379701574E-16,2.,7.));
#1592=CARTESIAN_POINT('',(-3.,2.,7.));
#1593=CARTESIAN_POINT('Origin',(-4.28626379701574E-16,2.,7.));
#1594=CARTESIAN_POINT('',(-1.55,2.,7.));
#1595=CARTESIAN_POINT('Origin',(-4.28626379701574E-16,2.,7.));
#1596=CARTESIAN_POINT('Origin',(-4.28626379701574E-16,3.5,7.));
#1597=CARTESIAN_POINT('',(-3.,5.,7.));
#1598=CARTESIAN_POINT('Origin',(-4.28626379701574E-16,5.,7.));
#1599=CARTESIAN_POINT('',(-3.,3.5,7.));
#1600=CARTESIAN_POINT('Origin',(-4.28626379701574E-16,-48.9722150740545,
7.));
#1601=CARTESIAN_POINT('',(-1.55,0.,7.));
#1602=CARTESIAN_POINT('',(-1.55,-48.9722150740545,7.));
#1603=CARTESIAN_POINT('Origin',(-4.28626379701574E-16,0.,7.));
#1604=CARTESIAN_POINT('Origin',(1.28587913910472E-15,2.,-7.));
#1605=CARTESIAN_POINT('',(-3.,2.,-7.));
#1606=CARTESIAN_POINT('Origin',(1.28587913910472E-15,2.,-7.));
#1607=CARTESIAN_POINT('',(-1.55,2.,-7.));
#1608=CARTESIAN_POINT('Origin',(1.28587913910472E-15,2.,-7.));
#1609=CARTESIAN_POINT('Origin',(1.28587913910472E-15,3.5,-7.));
#1610=CARTESIAN_POINT('',(-3.,5.,-7.));
#1611=CARTESIAN_POINT('Origin',(1.28587913910472E-15,5.,-7.));
#1612=CARTESIAN_POINT('',(-3.,3.5,-7.));
#1613=CARTESIAN_POINT('Origin',(1.28587913910472E-15,-48.9722150740545,
-7.));
#1614=CARTESIAN_POINT('',(-1.55,0.,-7.));
#1615=CARTESIAN_POINT('',(-1.55,-48.9722150740545,-7.));
#1616=CARTESIAN_POINT('Origin',(1.28587913910472E-15,0.,-7.));
#1617=CARTESIAN_POINT('Origin',(0.,0.,0.));
#1618=CARTESIAN_POINT('',(19.,5.,-2.32682891837997E-15));
#1619=CARTESIAN_POINT('Origin',(0.,5.,0.));
#1620=CARTESIAN_POINT('',(19.,0.,-2.32682891837997E-15));
#1621=CARTESIAN_POINT('',(19.,0.,-2.32682891837997E-15));
#1622=CARTESIAN_POINT('Origin',(0.,0.,0.));
#1623=CARTESIAN_POINT('Origin',(0.,5.,0.));
#1624=CARTESIAN_POINT('Origin',(0.,0.,0.));
#1625=CARTESIAN_POINT('',(-15.,1.49211004431368E-15,-20.124860247962));
#1626=CARTESIAN_POINT('',(0.,0.,0.));
#1627=CARTESIAN_POINT('',(15.,6.77180771985144E-16,-20.124860247962));
#1628=CARTESIAN_POINT('',(25.1,1.49211004431368E-15,-20.124860247962));
#1629=CARTESIAN_POINT('',(40.1,0.,0.));
#1630=CARTESIAN_POINT('',(55.1,1.23229228429772E-15,-20.124860247962));
#1631=CARTESIAN_POINT('',(-40.1,2.26351016802141E-15,0.));
#1632=UNCERTAINTY_MEASURE_WITH_UNIT(LENGTH_MEASURE(0.01),#1642,
'DISTANCE_ACCURACY_VALUE',
'Maximum model space distance between geometric entities at asserted c
onnectivities');
#1633=UNCERTAINTY_MEASURE_WITH_UNIT(LENGTH_MEASURE(0.01),#1642,
'DISTANCE_ACCURACY_VALUE',
'Maximum model space distance between geometric entities at asserted c
onnectivities');
#1634=UNCERTAINTY_MEASURE_WITH_UNIT(LENGTH_MEASURE(0.01),#1642,
'DISTANCE_ACCURACY_VALUE',
'Maximum model space distance between geometric entities at asserted c
onnectivities');
#1635=UNCERTAINTY_MEASURE_WITH_UNIT(LENGTH_MEASURE(0.01),#1642,
'DISTANCE_ACCURACY_VALUE',
'Maximum model space distance between geometric entities at asserted c
onnectivities');
#1636=UNCERTAINTY_MEASURE_WITH_UNIT(LENGTH_MEASURE(0.01),#1642,
'DISTANCE_ACCURACY_VALUE',
'Maximum model space distance between geometric entities at asserted c
onnectivities');
#1637=(
GEOMETRIC_REPRESENTATION_CONTEXT(3)
GLOBAL_UNCERTAINTY_ASSIGNED_CONTEXT((#1632))
GLOBAL_UNIT_ASSIGNED_CONTEXT((#1642,#1644,#1645))
REPRESENTATION_CONTEXT('','3D')
);
#1638=(
GEOMETRIC_REPRESENTATION_CONTEXT(3)
GLOBAL_UNCERTAINTY_ASSIGNED_CONTEXT((#1633))
GLOBAL_UNIT_ASSIGNED_CONTEXT((#1642,#1644,#1645))
REPRESENTATION_CONTEXT('','3D')
);
#1639=(
GEOMETRIC_REPRESENTATION_CONTEXT(3)
GLOBAL_UNCERTAINTY_ASSIGNED_CONTEXT((#1634))
GLOBAL_UNIT_ASSIGNED_CONTEXT((#1642,#1644,#1645))
REPRESENTATION_CONTEXT('','3D')
);
#1640=(
GEOMETRIC_REPRESENTATION_CONTEXT(3)
GLOBAL_UNCERTAINTY_ASSIGNED_CONTEXT((#1635))
GLOBAL_UNIT_ASSIGNED_CONTEXT((#1642,#1644,#1645))
REPRESENTATION_CONTEXT('','3D')
);
#1641=(
GEOMETRIC_REPRESENTATION_CONTEXT(3)
GLOBAL_UNCERTAINTY_ASSIGNED_CONTEXT((#1636))
GLOBAL_UNIT_ASSIGNED_CONTEXT((#1642,#1644,#1645))
REPRESENTATION_CONTEXT('','3D')
);
#1642=(
LENGTH_UNIT()
NAMED_UNIT(*)
SI_UNIT(.MILLI.,.METRE.)
);
#1643=(
LENGTH_UNIT()
NAMED_UNIT(*)
SI_UNIT(.CENTI.,.METRE.)
);
#1644=(
NAMED_UNIT(*)
PLANE_ANGLE_UNIT()
SI_UNIT($,.RADIAN.)
);
#1645=(
NAMED_UNIT(*)
SI_UNIT($,.STERADIAN.)
SOLID_ANGLE_UNIT()
);
#1646=SHAPE_DEFINITION_REPRESENTATION(#1650,#1661);
#1647=SHAPE_DEFINITION_REPRESENTATION(#1651,#1662);
#1648=SHAPE_DEFINITION_REPRESENTATION(#1652,#1663);
#1649=SHAPE_DEFINITION_REPRESENTATION(#1653,#1664);
#1650=PRODUCT_DEFINITION_SHAPE('',$,#1666);
#1651=PRODUCT_DEFINITION_SHAPE('',$,#1667);
#1652=PRODUCT_DEFINITION_SHAPE('',$,#1668);
#1653=PRODUCT_DEFINITION_SHAPE('',$,#1669);
#1654=PRODUCT_DEFINITION_SHAPE($,$,#32);
#1655=PRODUCT_DEFINITION_SHAPE($,$,#33);
#1656=PRODUCT_DEFINITION_SHAPE($,$,#34);
#1657=PRODUCT_DEFINITION_SHAPE($,$,#35);
#1658=PRODUCT_DEFINITION_SHAPE($,$,#36);
#1659=PRODUCT_DEFINITION_SHAPE($,$,#37);
#1660=PRODUCT_DEFINITION_SHAPE($,$,#38);
#1661=SHAPE_REPRESENTATION('',(#968,#1092,#1093,#1094,#1095,#1096,#1097,
#1098),#1637);
#1662=SHAPE_REPRESENTATION('',(#969),#1638);
#1663=SHAPE_REPRESENTATION('',(#1024),#1639);
#1664=SHAPE_REPRESENTATION('',(#1037),#1640);
#1665=PRODUCT_DEFINITION_CONTEXT('part definition',#1679,'design');
#1666=PRODUCT_DEFINITION('Leg_t5_CAM','Leg_t5_CAM',#1670,#1665);
#1667=PRODUCT_DEFINITION('Part10','hip_joint_yaw_spacer_3',#1671,#1665);
#1668=PRODUCT_DEFINITION('roll_free_horn_axis_2',
'roll_free_horn_axis_2',#1672,#1665);
#1669=PRODUCT_DEFINITION('waist_spacer','waist_spacer',#1673,#1665);
#1670=PRODUCT_DEFINITION_FORMATION('',$,#1681);
#1671=PRODUCT_DEFINITION_FORMATION('',$,#1682);
#1672=PRODUCT_DEFINITION_FORMATION('',$,#1683);
#1673=PRODUCT_DEFINITION_FORMATION('',$,#1684);
#1674=PRODUCT_RELATED_PRODUCT_CATEGORY('Leg_t5_CAM','Leg_t5_CAM',(#1681));
#1675=PRODUCT_RELATED_PRODUCT_CATEGORY('hip_joint_yaw_spacer_3',
'hip_joint_yaw_spacer_3',(#1682));
#1676=PRODUCT_RELATED_PRODUCT_CATEGORY('roll_free_horn_axis_2',
'roll_free_horn_axis_2',(#1683));
#1677=PRODUCT_RELATED_PRODUCT_CATEGORY('waist_spacer','waist_spacer',(#1684));
#1678=APPLICATION_PROTOCOL_DEFINITION('international standard',
'automotive_design',2009,#1679);
#1679=APPLICATION_CONTEXT(
'Core Data for Automotive Mechanical Design Process');
#1680=PRODUCT_CONTEXT('part definition',#1679,'mechanical');
#1681=PRODUCT('Leg_t5_CAM','Leg_t5_CAM',$,(#1680));
#1682=PRODUCT('Part10','hip_joint_yaw_spacer_3',$,(#1680));
#1683=PRODUCT('roll_free_horn_axis_2','roll_free_horn_axis_2',$,(#1680));
#1684=PRODUCT('waist_spacer','waist_spacer',$,(#1680));
ENDSEC;
END-ISO-10303-21;
